<svg width="27" height="27" viewBox="0 0 27 27" fill="none" xmlns="http://www.w3.org/2000/svg">
<path d="M5.95466 21.0454C6.17404 21.2648 6.46204 21.375 6.75004 21.375C7.03804 21.375 7.32604 21.2648 7.54541 21.0454L13.5 15.0908L19.4547 21.0454C19.674 21.2648 19.962 21.375 20.25 21.375C20.538 21.375 20.826 21.2648 21.0454 21.0454C21.4853 20.6055 21.4853 19.8945 21.0454 19.4547L15.0908 13.5L21.0454 7.54541C21.4853 7.10554 21.4853 6.39454 21.0454 5.95466C20.6055 5.51479 19.8945 5.51479 19.4547 5.95466L13.5 11.9093L7.54541 5.95466C7.10554 5.51479 6.39454 5.51479 5.95466 5.95466C5.51479 6.39454 5.51479 7.10554 5.95466 7.54541L11.9093 13.5L5.95466 19.4547C5.51479 19.8945 5.51479 20.6055 5.95466 21.0454Z" fill="#394560"/>
</svg>
