<svg width="14" height="14" viewBox="0 0 14 14" fill="none" xmlns="http://www.w3.org/2000/svg">
<path d="M7.07181 8.94469L11.7667 4.25609C11.8123 4.21028 11.8666 4.17407 11.9264 4.14963C11.9862 4.12518 12.0504 4.11299 12.115 4.11377C12.1796 4.11455 12.2434 4.1283 12.3026 4.15419C12.3618 4.18008 12.4153 4.21759 12.4597 4.26449C12.5508 4.36044 12.6009 4.48812 12.5993 4.6204C12.5977 4.75268 12.5446 4.87914 12.4513 4.97289L7.40921 10.008C7.36397 10.0535 7.3101 10.0896 7.25075 10.1141C7.19141 10.1386 7.12777 10.151 7.06358 10.1506C6.99938 10.1502 6.9359 10.137 6.87686 10.1118C6.81782 10.0866 6.76439 10.0499 6.71971 10.0038L1.54321 4.70409C1.45159 4.60922 1.40039 4.48248 1.40039 4.35059C1.40039 4.21871 1.45159 4.09197 1.54321 3.99709C1.58823 3.95074 1.64209 3.91388 1.70161 3.88872C1.76113 3.86355 1.82509 3.85059 1.88971 3.85059C1.95433 3.85059 2.01829 3.86355 2.07781 3.88872C2.13733 3.91388 2.19119 3.95074 2.23621 3.99709L7.07181 8.94469Z" fill="#9F9F9F"/>
</svg>
