<svg width="8" height="8" viewBox="0 0 8 8" fill="none" xmlns="http://www.w3.org/2000/svg">
<path fill-rule="evenodd" clip-rule="evenodd" d="M0.211151 0.211151C0.370615 0.0516867 0.629157 0.0516867 0.788621 0.211151L3.99989 3.42242L7.21115 0.211151C7.37061 0.0516867 7.62916 0.0516867 7.78862 0.211151C7.94809 0.370615 7.94809 0.629157 7.78862 0.788621L4.57736 3.99989L7.78862 7.21115C7.94809 7.37061 7.94809 7.62916 7.78862 7.78862C7.62916 7.94809 7.37061 7.94809 7.21115 7.78862L3.99989 4.57736L0.788621 7.78862C0.629157 7.94809 0.370615 7.94809 0.211151 7.78862C0.0516867 7.62916 0.0516867 7.37061 0.211151 7.21115L3.42242 3.99989L0.211151 0.788621C0.0516867 0.629157 0.0516867 0.370615 0.211151 0.211151Z" fill="#000000"/>
</svg>
