<svg xmlns="http://www.w3.org/2000/svg" width="205" height="26" viewBox="0 0 205 26" fill="none">
  <mask id="mask0_7174_2563" style="mask-type:alpha" maskUnits="userSpaceOnUse" x="0" y="0" width="205" height="26">
    <path d="M0 0H205V25.7287H0V0Z" fill="#D9D9D9"/>
  </mask>
  <g mask="url(#mask0_7174_2563)">
    <path d="M43.1795 13.1597L43.7406 13.0284L42.6487 12.8402L43.1721 12.7024C43.697 12.7037 44.377 12.9101 44.747 12.8004C44.7922 12.6942 44.2207 12.6602 44.0749 12.5755C43.9458 12.4888 43.8405 12.4026 43.7602 12.3181C44.046 12.319 44.3602 12.3394 44.6843 12.3782C45.1201 12.4416 45.5475 12.4724 45.9195 12.4672C46.6801 12.4844 47.4149 12.4673 48.2418 12.471L47.9667 12.2155L49.0324 12.2752C49.1454 12.2947 49.28 12.2634 49.391 12.2875C50.3146 12.4913 50.7054 12.3802 51.1488 12.2882C51.2397 12.2643 51.3492 12.2465 51.4744 12.2352C52.7065 12.2841 53.8175 12.5698 54.9272 12.7164C55.136 12.7539 55.3363 12.8019 55.5139 12.8572C55.8998 12.9647 56.3291 13.0524 56.7625 13.1124C57.1959 13.1724 57.6195 13.2027 57.9947 13.2006C58.8242 13.1982 59.7615 13.2693 60.7157 13.4069C60.9995 13.4523 61.2834 13.4822 61.5495 13.4948C61.8155 13.5073 62.0578 13.5023 62.2608 13.48L62.906 13.6259C63.1857 13.5667 63.5402 13.5342 63.9483 13.5304C64.3563 13.5266 64.8093 13.5516 65.2797 13.6038C65.781 13.6605 66.2901 13.6987 66.8102 13.7586C67.8845 13.8732 68.9301 13.9432 69.9145 13.9666C71.3804 14.0359 72.8126 14.0895 74.2914 14.1759C75.2165 14.2176 76.1179 14.2405 76.9901 14.2446C78.035 14.2609 79.1652 14.3398 80.3263 14.4776C80.2712 14.6069 79.7621 14.5687 79.4204 14.5644C78.3181 14.5429 77.19 14.4872 76.0559 14.4453C75.5451 14.429 75.0483 14.4228 74.5684 14.4268C73.7662 14.4215 72.9205 14.387 72.0458 14.3241C70.664 14.2548 69.3264 14.2215 68.0466 14.2245C67.9463 14.2296 67.8543 14.2387 67.7723 14.2516C67.7552 14.2628 67.7518 14.2768 67.7625 14.2924C67.7732 14.3081 67.7976 14.3247 67.8333 14.3408C67.869 14.3569 67.9149 14.372 67.9666 14.3844C68.0182 14.3969 68.074 14.4064 68.1284 14.4121C68.6367 14.4997 69.1826 14.5938 69.662 14.6071C69.6805 14.6081 69.7002 14.6103 69.7198 14.6137C69.7393 14.6171 69.7582 14.6214 69.7749 14.6265C70.848 14.8115 71.7303 14.7802 72.5662 14.8103C73.9541 14.8916 75.2919 14.9296 76.5595 14.9237C76.7511 14.9241 76.958 14.9347 77.1726 14.955C78.5003 15.0376 79.7417 15.0468 80.8388 14.9823C81.2903 14.966 81.7101 14.9293 82.1954 14.9287C82.4942 14.9262 82.7544 14.9028 82.9602 14.8599C83.166 14.817 83.3132 14.7555 83.3929 14.6791C83.5976 14.7193 83.8055 14.7552 84.0141 14.7862C84.1387 14.804 84.2582 14.8087 84.3484 14.7994C84.4386 14.7901 84.4929 14.7675 84.5002 14.7362C84.5376 14.6484 84.2532 14.6044 84.0065 14.5668C84.1553 14.548 84.3229 14.5369 84.5055 14.5339C85.5336 14.5138 86.6363 14.5375 87.7896 14.6043C88.6851 14.6844 89.4 14.6192 90.3421 14.7321C90.455 14.7515 90.548 14.723 90.652 14.7161C90.9231 14.68 91.2608 14.6718 91.6358 14.6924C92.0109 14.713 92.412 14.7617 92.8043 14.8343C93.2929 14.636 94.3483 14.8626 95.1277 14.8829C95.3677 14.9838 95.0924 14.966 95.0806 14.9937C95.0688 15.0215 95.0805 14.9937 94.9864 14.9775C94.2082 15.1203 93.142 15.1515 91.9375 15.0666C91.7148 15.0669 91.5025 15.0734 91.3028 15.086C91.0003 15.1038 90.6593 15.1021 90.2946 15.0807C89.8962 15.0651 89.5302 15.0725 89.2143 15.1027C89.0325 15.1022 88.8788 15.1173 88.7674 15.1466C88.656 15.1759 88.5905 15.2185 88.577 15.2704C88.6984 15.3104 88.833 15.347 88.9755 15.3787C89.7196 15.5041 90.4616 15.556 91.0556 15.5242C92.0893 15.4694 93.3194 15.5229 94.4186 15.5042C95.1617 15.4966 95.9524 15.5182 96.7758 15.5685C96.7758 15.5685 96.7541 15.6193 96.7522 15.6239C96.8495 15.6459 96.9519 15.6635 97.0534 15.6758C97.0534 15.6758 97.0534 15.6758 97.0632 15.6527C97.0181 15.6306 96.9569 15.6097 96.8867 15.5926L96.642 15.5504C96.8083 15.5394 96.9638 15.5067 97.1371 15.5267C97.5024 15.5638 97.8515 15.5795 98.1634 15.5727C98.4754 15.566 98.7437 15.5371 98.9522 15.4877C99.3219 15.4243 99.7816 15.3955 100.302 15.4031C100.7 15.3962 101.085 15.3813 101.452 15.3585C101.452 15.3585 101.476 15.3031 101.65 15.2737C101.485 15.2374 101.313 15.2077 101.142 15.1861C100.397 15.132 99.6501 15.0826 98.9182 15.0456C98.6486 15.0416 98.3951 15.0478 98.1626 15.0641C97.5186 15.0831 96.7951 15.0561 96.0342 14.9847C96.0342 14.9847 95.8836 14.9587 95.8083 14.9457C96.0218 14.8239 96.758 14.9459 97.0558 14.8634C97.237 14.8649 97.556 14.8752 97.545 14.8535C97.5202 14.8245 97.5172 14.7976 97.5363 14.7747C97.5555 14.7518 97.5962 14.7334 97.6556 14.7209C97.715 14.7084 97.7916 14.7021 97.8799 14.7024C97.9683 14.7027 98.0661 14.7097 98.1665 14.7227C99.0045 14.7935 99.7938 14.8132 100.486 14.7806C100.748 14.7812 101.043 14.8022 101.303 14.8074C101.463 14.8138 101.608 14.8102 101.732 14.7971C102.361 14.7002 103.208 14.6931 104.145 14.7769C104.598 14.807 105.021 14.8111 105.393 14.7888C105.657 14.7848 105.77 14.8537 105.958 14.8861L106.757 14.9546L105.731 15.0403C105.95 15.2367 106.124 15.3015 106.483 15.3137C107.006 15.3322 107.515 15.3406 108.008 15.3387C108.373 15.3371 108.674 15.2948 109.167 15.3699C109.254 15.3822 109.338 15.3862 109.405 15.3812C109.982 15.3145 110.678 15.2992 111.445 15.3363C111.841 15.2114 112.517 15.3328 113.142 15.4307C113.344 15.3366 112.978 15.2934 112.76 15.236C113.283 15.2419 113.81 15.2385 114.35 15.2522C114.512 15.2472 114.698 15.2558 114.892 15.2772C115.086 15.2987 115.284 15.3324 115.469 15.3758C115.56 15.4039 115.669 15.425 115.774 15.4347C115.879 15.4445 115.971 15.4422 116.033 15.4284C116.313 15.3874 116.762 15.4251 116.993 15.356C117.076 15.3401 117.193 15.3379 117.325 15.3497C117.457 15.3616 117.595 15.3867 117.714 15.4207C117.584 15.4313 117.468 15.4479 117.369 15.4703C117.015 15.5431 117.145 15.6646 117.595 15.8414C118.286 15.8317 118.992 15.8344 119.633 15.8011C119.99 15.7712 120.428 15.7806 120.896 15.8281C121.365 15.8756 121.847 15.9595 122.287 16.0702C122.446 16.1128 122.628 16.1423 122.795 16.1528C122.963 16.1634 123.105 16.1542 123.192 16.1272C123.247 16.0958 123.263 16.0562 123.241 16.0117L122.789 15.9338C122.789 15.9338 122.807 15.8923 122.811 15.883L123.461 15.8761C123.804 15.8758 124.163 15.8881 124.488 15.8846C124.965 15.8614 125.509 15.8743 126.088 15.9225C126.622 15.972 127.146 16.0094 127.657 16.0344C128.151 16.0601 128.51 15.9781 128.98 15.965C129.336 15.9552 129.727 15.9657 130.139 15.9963C130.85 16.0504 131.503 16.0505 132.038 15.9966C132.662 16.2875 132.965 16.3348 133.544 16.2562L133.817 16.2337L133.891 16.2961L134.099 16.2824C134.488 16.2702 134.877 16.2579 135.283 16.2536C135.848 16.2806 136.457 16.3532 137.053 16.4644C137.166 16.4839 137.319 16.55 137.418 16.6018C137.518 16.6536 137.734 16.8099 137.893 16.9116C137.72 16.9858 137.528 17.0568 137.39 17.1422C137.377 17.1568 137.378 17.1742 137.394 17.193C137.411 17.2118 137.442 17.2314 137.485 17.2504C137.528 17.2694 137.582 17.2872 137.642 17.3023C137.703 17.3174 137.768 17.3294 137.833 17.3374C137.959 17.3546 138.084 17.3661 138.202 17.3713C138.784 17.3804 139.341 17.3737 139.868 17.3512C140.06 17.3194 140.324 17.3164 140.616 17.3426C140.909 17.3688 141.214 17.4227 141.484 17.4958C142.173 17.452 142.974 17.4649 143.832 17.5338C144.739 17.4919 145.834 17.5767 146.682 17.4848C146.662 17.531 146.749 17.6105 146.871 17.6563C147.064 17.7259 147.283 17.7904 147.518 17.847L149.309 17.9576C149.376 18.0145 149.46 18.0721 149.56 18.1296C149.628 18.1751 149.746 18.2195 149.89 18.2536C150.034 18.2877 150.192 18.3086 150.331 18.3121C150.687 18.329 150.986 18.2913 151.411 18.3844C150.757 18.4724 149.873 18.4607 148.919 18.3514C148.023 18.2682 147.161 18.2267 146.365 18.2283C146.103 18.2276 145.757 18.2325 145.675 18.2828C145.493 18.4249 145.018 18.4025 144.463 18.3762C144.027 18.3475 143.629 18.3508 143.302 18.3856C142.974 18.4205 142.727 18.4861 142.579 18.5769C142.542 18.6646 142.631 18.7395 143.014 18.7905L144.604 18.9953C144.838 18.9689 145.06 18.9378 145.27 18.9019C145.623 18.8543 146.058 18.8412 146.543 18.8637C147.028 18.8862 147.548 18.9437 148.064 19.0316C148.328 19.0771 148.591 19.1225 148.782 19.1009C148.95 19.0761 149.104 19.0464 149.244 19.0121C149.273 18.989 149.284 18.9625 149.278 18.9336C149.379 18.947 149.481 18.9645 149.579 18.9855C150.364 19.2299 150.972 19.2256 151.525 19.1623C151.674 19.1434 151.788 19.1135 151.939 19.09C152.091 19.0665 152.144 19.0361 152.282 19.045C153.379 19.1251 153.695 18.8574 154.62 18.8682C154.665 18.8577 154.693 18.8421 154.702 18.8227C154.71 18.8033 154.698 18.7809 154.668 18.7573C154.602 18.7361 154.527 18.7179 154.448 18.7042C154.369 18.6906 154.289 18.6821 154.216 18.6795C153.79 18.6451 153.414 18.6556 153.152 18.7093C152.967 18.7312 152.77 18.7486 152.564 18.7615L151.638 18.3739C152.535 18.4094 153.384 18.4092 154.164 18.3732C154.334 18.353 154.623 18.3878 154.862 18.3944L156.625 18.4307C156.988 18.4337 157.297 18.3729 157.802 18.5146C157.802 18.5146 158.136 18.5374 158.225 18.5181C158.314 18.4987 158.709 18.3784 158.944 18.3C159.218 18.3224 159.596 18.3827 159.766 18.3625C160.064 18.3128 160.321 18.2492 160.534 18.1727L161.599 18.2819C161.598 18.3789 161.559 18.4702 161.483 18.5543C161.4 18.6355 161.403 18.7329 161.491 18.8386C161.58 18.9443 161.751 19.0553 161.992 19.1625L163.044 19.7303C163.215 19.7684 163.398 19.794 163.568 19.8037C163.737 19.8134 163.885 19.8067 163.991 19.7845C164.443 19.7188 164.95 19.6674 165.402 19.6016C165.986 19.7022 165.836 19.8647 166.26 20.0072L167.634 20.2441C167.844 20.4636 168.058 20.6739 167.42 20.7474C167.293 20.7603 167.379 20.8444 167.263 20.879C167.759 21.0437 168.304 21.093 168.806 21.1945C169.004 21.2675 169.17 21.3447 169.295 21.4225C169.432 21.5396 169.711 21.6593 170.071 21.7556C170.431 21.8519 170.842 21.9172 171.218 21.9373C171.847 21.999 172.491 22.0916 173.122 22.2111C173.337 22.2526 173.559 22.2828 173.771 22.2998C173.983 22.3167 174.182 22.32 174.353 22.3093C174.963 22.2905 175.48 22.2258 175.869 22.1195C176.253 22.0293 176.772 21.9858 177.378 21.993C178.413 22.1715 178.622 22.4404 179.248 22.6773L178.166 22.7039C178.127 22.7962 178.198 22.9127 177.755 22.9105C177.311 22.9084 177.536 22.9968 177.68 23.086C177.731 23.1309 177.83 23.1771 177.96 23.2167C178.091 23.2563 178.244 23.287 178.396 23.3035L179.317 23.4178C179.644 23.4612 179.96 23.4798 180.231 23.4714C180.502 23.463 180.717 23.428 180.853 23.3702C181.009 23.3154 181.224 23.2783 181.485 23.2612C181.818 23.2164 182.092 23.1499 182.297 23.064L183.597 23.1891C183.653 23.1028 183.832 23.0423 184.103 23.0178C184.375 22.9934 184.724 23.0064 185.089 23.0547L185.966 23.1315C186.941 23.2152 187.155 23.1877 187.44 22.9444L186.271 22.51C186.441 22.3956 186.605 22.295 186.769 22.1944C186.478 22.0512 186.09 21.9159 185.643 21.802C185.227 21.6796 184.798 21.5611 184.36 21.4469C183.884 21.3302 183.381 21.2287 182.791 21.0972C182.688 21.0546 182.538 20.9792 182.347 20.9066C182.155 20.836 181.955 20.7668 181.748 20.6993C181.787 20.607 181.822 20.5238 181.747 20.4166C182.111 20.4508 182.486 20.5107 182.84 20.5907C183.194 20.6708 183.515 20.7685 183.774 20.8752C183.818 20.8941 183.871 20.9119 183.931 20.9273C183.991 20.9427 184.055 20.9554 184.12 20.9646C184.759 21.0301 185.065 21.167 185.377 21.3349C185.588 21.4207 185.859 21.4969 186.153 21.5529C186.718 21.6503 187.271 21.7753 187.811 21.8833C187.976 21.9193 188.148 21.9489 188.319 21.9709C188.884 22.0409 189.452 22.1389 189.995 22.2597C190.172 22.2904 190.342 22.3311 190.491 22.3783C190.639 22.4254 190.762 22.4778 190.849 22.5309C190.715 22.5891 190.642 22.6626 190.636 22.7469C190.613 22.8024 191.009 22.9153 191.197 22.9972C191.384 23.0791 191.016 23.0405 190.892 23.0487C190.38 23.0646 190.285 23.0977 190.591 23.2795C190.694 23.3366 190.762 23.3938 190.791 23.4474C190.82 23.5011 190.81 23.5501 190.762 23.5913C190.689 23.7622 190.468 23.9025 190.316 24.0696C190.552 24.1796 190.946 24.2972 190.989 24.4335C191.01 24.4637 191.053 24.4958 191.117 24.5273C191.18 24.5588 191.262 24.589 191.356 24.6157C191.604 24.6734 191.829 24.7424 192.015 24.8173C192.2 24.8922 192.34 24.9711 192.425 25.0478C192.453 25.0795 192.52 25.1132 192.612 25.142C192.705 25.1709 192.816 25.1928 192.925 25.2033C193.054 25.2163 193.17 25.2146 193.248 25.1985C193.326 25.1825 193.361 25.1534 193.345 25.1172C193.348 25.0492 193.331 24.9783 193.294 24.9052C193.316 24.8544 193.337 24.8036 193.252 24.7195C193.638 24.7502 194.043 24.8117 194.423 24.8973C194.804 24.983 195.145 25.0895 195.409 25.2053C195.702 25.3252 195.972 25.451 196.296 25.5911C196.229 25.7481 196.229 25.7481 196.919 26.0257L200.58 26.161L201.33 26.3449C202.03 26.5051 202.196 26.4942 202.635 26.4113L202.931 26.3334C203.552 26.4405 204.268 26.5639 204.656 26.3632C204.783 26.494 204.865 26.5379 204.836 26.5578C204.651 26.7508 204.329 26.9145 203.882 27.0426C203.768 27.0725 203.688 27.1182 203.556 27.1449C203.128 27.2956 203.029 27.5285 203.278 27.796C203.402 27.9143 203.582 28.0355 203.812 28.1557C203.475 28.3224 203.029 28.4605 202.486 28.5663C202.024 28.6482 201.644 28.7579 201.357 28.8922C201.098 29.0276 200.712 29.1293 200.219 29.1917C199.969 29.2181 199.786 29.2704 199.689 29.3433C199.661 29.5405 199.727 29.7516 199.886 29.972C199.917 30.0391 200.002 30.1115 200.136 30.1836C200.27 30.2558 200.449 30.3256 200.659 30.3877C200.659 30.3877 200.76 30.4349 200.809 30.4631C200.849 30.7019 200.698 30.9124 200.364 31.0804C200.31 31.128 200.198 31.1625 200.041 31.1799C199.884 31.1974 199.688 31.1973 199.473 31.1796C199.021 31.1511 198.598 31.1476 198.16 31.1316C197.688 31.109 197.273 31.1268 196.957 31.1832C196.642 31.2396 196.438 31.3324 196.367 31.4519C196.362 31.4858 196.348 31.5182 196.325 31.5489C196.312 31.5647 196.305 31.5817 196.304 31.5997L197.309 31.9911L196.172 32.1469C196.105 32.3039 196.651 32.398 196.924 32.5146L196.755 32.5796C196.538 32.6164 196.244 32.5461 195.979 32.5052L195.715 32.4598L195.684 32.5337C195.52 32.6343 194.921 32.5212 194.688 32.5949C194.454 32.6687 194.621 32.7519 194.971 32.8321C195.214 32.8916 195.475 32.9391 195.734 32.971C195.994 33.0028 196.245 33.0182 196.468 33.0159C196.602 33.008 196.713 32.99 196.794 32.963C197.266 32.848 197.788 32.7491 198.355 32.667C198.79 32.5933 199.334 32.562 199.95 32.5752C200.131 32.5697 200.349 32.5871 200.566 32.6245C200.783 32.6619 200.984 32.7168 201.136 32.7797L201.455 32.79C201.455 32.79 201.629 32.8548 201.605 32.8654C201.483 33.0573 201.624 33.2919 202.007 33.5345L201.674 33.5564C201.199 33.5339 201.5 33.6801 201.429 33.7521C201.092 33.7385 200.653 33.6777 200.492 33.769L200.253 33.7624L200.347 33.7787L200.461 33.7487L200.908 33.8853C200.696 33.9082 200.543 33.9363 200.355 33.9486C200.252 33.9594 200.17 33.9784 200.113 34.0044C200.057 34.0305 200.028 34.0631 200.028 34.1004C200.029 34.1577 199.973 34.2059 199.866 34.2404C199.76 34.275 199.605 34.2947 199.419 34.2977C199.196 34.2989 199.068 34.3612 198.938 34.3833L199.505 34.7587C199.505 34.7587 199.223 34.71 199.377 34.7762L199.396 34.73L199.74 34.824C199.988 34.9063 200.161 34.9263 200.308 34.8673C200.454 34.8082 200.421 34.8868 200.491 34.8642C200.465 34.9242 200.306 34.9661 200.17 35.0021C200.012 35.0303 199.833 35.0511 199.638 35.0641C199.99 35.328 200.007 35.3359 199.492 35.4058C198.978 35.4756 199.155 35.5806 198.725 35.5956C198.294 35.6105 198.784 35.7891 199.072 35.824C199.286 35.8469 199.503 35.8825 199.711 35.9285C199.918 35.9745 200.109 36.0297 200.272 36.0903L200.185 36.2935C200.059 36.2767 199.932 36.2548 199.809 36.2286C199.392 36.117 199.012 36.0119 198.641 36.0768L198.818 36.2312L197.522 36.1417C197.556 36.2574 197.753 36.3891 198.073 36.5092C198.025 36.5752 197.995 36.6446 197.984 36.717C197.963 36.7678 197.835 36.7358 197.752 36.7413C197.455 36.7498 197.211 36.7842 197.043 36.8416C196.874 36.8989 196.785 36.9773 196.783 37.07C196.75 37.1485 197.206 37.3114 197.491 37.306C198.203 37.3217 198.973 37.3821 199.759 37.4839C200.239 37.4972 200.306 37.2908 201.095 37.4317C201.111 37.527 201.01 37.6041 200.807 37.6515C200.605 37.6989 200.312 37.7139 199.973 37.6942C200.166 37.9059 201.233 37.9611 201.281 38.1823C201.015 38.1667 200.73 38.1299 200.456 38.0757C200.181 38.0214 199.926 37.9514 199.715 37.8728C199.669 37.8534 199.612 37.8356 199.549 37.8209C199.485 37.8062 199.418 37.7951 199.352 37.7887C199.286 37.7823 199.224 37.7808 199.172 37.7843C199.121 37.7877 199.08 37.7961 199.055 37.8086C199.203 37.8886 199.366 37.9811 199.551 38.0676C199.737 38.1541 199.781 38.1915 199.915 38.2096C200.913 38.3816 201.387 38.6914 202.25 38.8947C202.476 38.9337 202.504 39.0575 202.308 39.0435C202.122 39.0295 201.953 39.0313 201.82 39.0488C201.688 39.0662 201.598 39.0986 201.559 39.1423C201.414 39.1933 201.234 39.2338 201.023 39.263C201.908 39.5809 202.963 39.8617 204.09 40.0792C204.304 40.1222 204.526 40.1484 204.725 40.154C205.354 40.1543 206.022 40.1795 206.714 40.2292C206.96 40.2427 207.186 40.2414 207.382 40.2254C208.025 40.1875 208.535 40.2705 209.001 40.5045L209.773 40.8754C209.747 40.9355 209.618 41.0024 209.518 41.0942L210.121 41.2923L214.721 40.8361L215.644 41.2778L216.968 41.2532C217.069 41.266 217.171 41.2836 217.269 41.3052C217.537 41.4356 217.746 41.5609 218.037 41.6853C218.327 41.8097 218.846 41.8249 219.208 41.9715C219.57 42.1181 219.933 42.1211 220.38 42.2083C220.423 42.3218 220.379 42.424 220.253 42.5084C220.211 42.6054 219.984 42.6653 219.944 42.7576C219.949 42.851 219.864 42.9302 219.698 42.9882C219.533 43.0461 219.291 43.081 218.995 43.0896C218.166 43.2883 217.167 43.4298 216.027 43.5098C215.927 43.5156 215.844 43.5291 215.783 43.5493C215.723 43.5695 215.685 43.5961 215.674 43.6274C215.676 43.718 215.6 43.7963 215.452 43.8565C215.304 43.9167 215.087 43.9574 214.818 43.9756C214.747 43.9792 214.693 43.9906 214.663 44.0083C214.561 44.0197 214.487 44.0415 214.447 44.0716C214.408 44.1018 214.405 44.1392 214.438 44.1803C214.471 44.2215 214.54 44.2649 214.637 44.3064C214.735 44.3479 214.858 44.386 214.994 44.4172C215.192 44.4675 215.394 44.5155 215.6 44.5613C215.588 44.589 215.384 44.5935 215.414 44.6184C215.494 44.6981 215.513 44.7727 215.468 44.8364C215.424 44.9001 215.317 44.9511 215.156 44.9854L216.256 45.6309C216.923 45.7203 217.577 45.872 218.095 46.057C218.096 46.0873 218.066 46.1128 218.009 46.1307C217.951 46.1487 217.868 46.1585 217.768 46.1594C217.5 46.1726 217.247 46.1983 216.958 46.2129C216.781 46.2238 216.634 46.2478 216.525 46.2835C216.416 46.3192 216.348 46.3658 216.323 46.4208L216.969 46.6609C216.762 46.7194 216.609 46.7475 216.472 46.7834C216.549 46.8589 216.683 46.937 216.861 47.0116C217.04 47.0862 217.259 47.1553 217.501 47.2137C217.566 47.2257 217.633 47.2345 217.697 47.2395C217.76 47.2446 217.82 47.2457 217.873 47.243C218.373 47.1606 218.957 47.306 219.525 47.4436C220.093 47.5811 220.401 47.664 220.821 47.771L221.623 47.7853C221.826 47.836 222.007 47.8955 222.152 47.9592C222.297 48.0229 222.401 48.089 222.457 48.1521C222.414 48.2537 222.033 48.198 221.806 48.2085C221.268 48.2717 220.561 48.2583 219.802 48.1703C219.614 48.1378 219.421 48.164 219.237 48.1672C218.842 48.1798 218.462 48.2004 218.1 48.2288C217.861 48.2552 217.638 48.2879 217.432 48.3267C217.377 48.456 218.243 48.5559 217.751 48.6198C217.921 48.649 217.984 48.6897 218.071 48.6749C218.63 48.7589 219.179 48.8004 219.657 48.7947C220.574 48.7768 221.616 48.8357 222.696 48.9666C223.862 49.1021 224.981 49.159 225.96 49.1326C226.332 49.1311 226.749 49.1588 227.178 49.2138C227.684 49.2899 228.187 49.3377 228.654 49.3542C228.809 49.3548 228.981 49.3677 229.157 49.392C229.332 49.4163 229.507 49.4512 229.666 49.4939C229.652 49.5262 229.5 49.5497 229.534 49.5654C230.017 49.8073 230.213 50.0591 230.957 50.3062C231.465 50.3938 232.048 50.4944 232.381 50.3783C232.713 50.2621 232.594 50.1622 231.933 49.8648C232.076 49.8605 232.249 49.8744 232.421 49.9041C232.593 49.9337 232.753 49.9773 232.874 50.0271L233.446 50.2496L233.962 50.4624C233.916 50.5686 233.881 50.6517 233.844 50.7394C233.785 50.8326 233.849 50.9461 234.029 51.0638C234.137 51.1281 234.231 51.1924 234.311 51.2561C234.633 51.511 234.726 51.752 234.58 51.9519C234.3 52.2394 233.91 52.5039 233.415 52.7424C232.892 52.9743 232.606 53.267 232.175 53.5198C231.955 53.6349 231.688 53.7381 231.376 53.8283C230.786 54.0288 230.139 54.2196 229.546 54.4248C228.954 54.63 228.285 54.7773 227.627 54.9464C226.647 55.1471 225.588 55.3204 224.455 55.4654C223.755 55.5924 223.035 55.7162 222.387 55.8622C221.621 56.0268 220.722 56.145 219.711 56.2138C218.818 56.2963 218.021 56.4182 217.333 56.5772C217.261 56.5944 217.204 56.6163 217.164 56.6422C217.041 56.8044 216.694 56.9187 216.177 56.9677C216.208 57.0152 216.249 57.0634 216.297 57.1123C216.369 57.1706 216.384 57.2251 216.34 57.2688C216.296 57.3125 216.196 57.3434 216.052 57.3574C215.638 57.3976 215.294 57.4658 215.036 57.5591C214.941 57.5825 214.882 57.6165 214.864 57.6584C214.847 57.7002 214.87 57.7485 214.934 57.7992C214.99 57.8513 214.994 57.8993 214.946 57.9369C214.897 57.9745 214.798 58 214.662 58.0101C214.312 58.0595 213.938 58.0992 213.54 58.129C212.696 58.1948 211.713 58.194 210.652 58.1267C210.539 58.1072 210.425 58.1372 210.293 58.1145C209.543 58.0391 208.846 58.0274 208.287 58.0808C207.631 58.1017 206.946 58.0975 206.255 58.1073C205.256 58.1007 204.335 58.1404 203.517 58.2251C202.582 58.1432 202.056 58.2856 201.267 58.2883C200.538 58.303 199.848 58.3381 199.202 58.3933C198.16 58.4665 197.122 58.5305 196.096 58.6162C195.132 58.6571 194.246 58.7352 193.45 58.8492C193.145 58.9007 192.594 58.8204 192.386 58.9284C192.178 59.0363 191.759 59.0236 191.421 59.0594L190.352 59.1479C190.169 59.1689 189.967 59.1822 189.75 59.1877C188.756 59.1949 188.068 59.339 187.147 59.3684L187.052 59.3522C185.416 59.5665 183.542 59.6841 181.488 59.7015C180.288 59.7673 178.976 59.7641 177.702 59.8123C177.399 59.9086 176.681 59.7899 176.3 59.8779C175.919 59.9659 175.297 59.9082 174.806 59.9226C174.315 59.9371 173.835 59.9733 173.31 59.972C172.854 59.9725 172.469 60.0117 172.19 60.0863C171.553 60.2096 170.777 60.2821 169.896 60.3006C168.731 60.3326 167.629 60.4053 166.443 60.3893C166.46 60.4792 166.388 60.5557 166.233 60.6108C166.078 60.666 165.846 60.6979 165.562 60.7033C164.294 60.7376 163.145 60.8269 161.861 60.8534L161.517 60.8536L157.676 60.9052C156.641 60.9152 155.644 60.9316 154.588 60.943C154.193 60.8748 154.183 60.9921 153.91 60.9698C153.833 60.912 153.743 60.8865 153.608 60.9178L153.579 60.9871L149.195 61.079C147.479 61.1462 145.673 61.1663 143.794 61.1393C143.348 61.1461 142.932 61.169 142.553 61.2078C142.201 61.2219 141.833 61.2281 141.453 61.2265C140.939 61.209 140.437 61.2002 139.949 61.2001C138.665 61.2265 137.317 61.2123 135.91 61.1929C134.504 61.1735 133.439 61.2079 132.187 61.2053C131.339 61.2029 130.495 61.1913 129.618 61.1639C129.199 61.1512 128.683 61.082 128.249 61.0568C127.815 61.0316 127.674 61.032 127.616 61.0717C127.427 61.1829 126.953 61.111 126.573 61.1001C125.834 61.0816 125.729 61.0437 125.528 60.7562L126.435 60.6649C126.658 60.6354 126.938 60.6303 127.248 60.6499C127.558 60.6695 127.888 60.7132 128.207 60.7769C128.332 60.8042 128.463 60.8257 128.592 60.8403C128.721 60.8549 128.845 60.8623 128.958 60.8619C129.874 60.8463 130.777 60.8136 131.658 60.787L131.786 60.7695L131.795 60.5131C131.678 60.488 131.557 60.4672 131.437 60.4515L127.022 60.2852C126.008 60.2443 124.956 60.1522 123.962 60.1146C122.968 60.077 122.432 60.0541 121.66 60.0152C121.335 59.9931 121.003 59.964 120.667 59.9282C120.686 59.9035 120.697 59.8773 120.7 59.8497C120.718 59.8082 120.741 59.7528 120.599 59.7083C120.443 59.6456 120.235 59.592 120.016 59.5583C119.81 59.536 119.611 59.5234 119.425 59.521C118.53 59.4995 117.507 59.3641 116.575 59.1437L116.25 59.2908C114.85 59.2081 113.43 59.1269 111.968 59.0483C111.675 59.0269 111.368 58.9858 111.069 58.9281C110.749 58.873 110.455 58.7578 110.118 58.6947C109.785 58.6494 109.454 58.614 109.132 58.5893C109.219 58.5514 109.334 58.5211 109.474 58.4994C109.611 58.4918 109.71 58.4681 109.758 58.4319C109.807 58.3956 109.801 58.3486 109.741 58.2977C109.637 58.2104 109.591 58.1281 109.818 58.1177C110.028 58.0977 110.177 58.0546 110.25 57.9934C110.323 57.9321 110.315 57.8553 110.228 57.772C110.19 57.7233 110.163 57.6756 110.147 57.6292L110.053 57.613C109.743 57.4405 109.123 57.3782 108.677 57.2371C108.467 57.1961 108.25 57.1726 108.059 57.1701C107.567 57.1398 107.088 57.1266 106.578 57.0884C106.335 57.0708 106.081 57.0388 105.83 56.9941C105.473 56.9325 105.435 56.926 105.227 56.7018C105.55 56.7058 105.806 56.6723 105.951 56.607C106.097 56.5418 106.124 56.4489 106.027 56.3439C105.76 56.1147 105.479 55.8729 104.276 55.71C104.668 55.702 105.046 55.6861 105.407 55.6623C105.513 55.6571 105.591 55.6403 105.633 55.614C105.675 55.5877 105.678 55.5532 105.641 55.5151C105.605 55.477 105.531 55.4371 105.429 55.4008C105.327 55.3645 105.202 55.3335 105.072 55.3119C104.436 55.1822 103.773 55.0955 103.158 55.0613C102.639 55.0462 102.17 55.0547 101.564 55.0543L100.849 54.931C100.861 54.9033 100.755 54.8653 100.782 54.8501C100.964 54.708 101.164 54.5691 101.371 54.4163C101.041 54.3338 100.755 54.2343 100.547 54.129C100.338 54.0237 100.214 53.917 100.19 53.8211C100.172 53.7922 100.177 53.7658 100.203 53.7439C100.23 53.7219 100.278 53.705 100.345 53.6942C100.533 53.6756 100.678 53.6402 100.77 53.5906C100.861 53.541 100.895 53.4786 100.871 53.4082L100.314 53.1487C98.6393 52.9636 96.9944 52.8313 95.4101 52.7544L93.9799 52.6962C93.8074 52.6268 93.8607 52.5963 94.0232 52.5946C94.1856 52.5928 94.6422 52.6121 94.9611 52.6224C95.2365 52.636 95.4811 52.6271 95.6711 52.5965C95.8612 52.5658 95.9903 52.5146 96.0459 52.4476L95.5657 52.1517C95.5893 52.0963 95.6227 52.0178 95.8831 52.023C96.0611 52.0166 96.1923 51.9887 96.2554 51.9439C96.3185 51.899 96.3099 51.8398 96.231 51.7757C96.219 51.7294 96.237 51.6872 96.2841 51.651C96.6693 51.648 97.0526 51.6497 97.4021 51.6356C97.5649 51.6309 97.7023 51.6137 97.8051 51.5853C97.9079 51.5568 97.9736 51.5177 97.9978 51.4706C98.0104 51.4246 97.9796 51.3723 97.9081 51.3178C97.8365 51.2632 97.7261 51.2081 97.5858 51.1567C97.038 51.0932 96.5369 51.0924 96.1924 51.1544C96.0696 51.2031 95.8724 51.2297 95.6266 51.2307C95.3809 51.2317 95.0982 51.207 94.8159 51.16C94.4926 51.1058 94.17 51.082 93.9061 51.0929C93.6422 51.1037 93.4543 51.1485 93.3762 51.2192C93.0443 51.1917 92.7502 51.1707 92.4599 51.1405C92.1175 51.1024 91.7939 51.0912 91.5239 51.108C91.0921 51.12 90.6268 51.113 90.1384 51.0873C88.731 51.0231 87.3216 50.9636 85.9588 50.9368C85.5983 50.9292 85.2864 50.9498 84.9299 50.9329C84.5733 50.9161 84.2912 50.9616 83.8453 50.8699C83.7604 50.8556 83.6749 50.8465 83.5956 50.8431C83.5164 50.8398 83.4455 50.8424 83.3887 50.8507C82.6056 50.9232 81.6875 50.9335 80.6882 50.8808C79.3196 50.8679 77.9003 50.8314 76.5297 50.8232C76.1277 50.8303 75.7478 50.8494 75.394 50.8802C75.1247 50.8988 74.8427 50.9114 74.5494 50.918C74.3246 50.9238 74.1096 50.9066 74.1476 51.0073C74.1855 51.108 73.8486 51.045 73.6545 51.0264C72.9874 50.9776 72.3056 50.9115 71.6168 50.8288C70.938 50.739 70.273 50.6867 69.6614 50.6751C69.2197 50.6684 68.7643 50.694 68.1964 50.5564C68.218 50.5056 68.2396 50.4548 68.3632 50.4018C67.9001 50.2559 67.3718 50.1303 66.8218 50.0355C66.2718 49.9407 65.716 49.8794 65.2005 49.8566L64.4896 49.5804C64.3145 49.548 64.1358 49.5244 63.9643 49.511C63.7929 49.4976 63.6322 49.4948 63.4921 49.5026C63.3838 49.5066 63.2518 49.4964 63.1204 49.4737C62.989 49.4511 62.8669 49.4176 62.7767 49.3793C62.6417 49.3307 62.4768 49.2887 62.3026 49.2587C62.1285 49.2287 61.9529 49.212 61.7977 49.2106C61.3092 49.1805 60.7878 49.1112 60.2869 49.0096C60.1568 48.9501 60.0754 48.8885 60.0525 48.8326C60.0296 48.7767 60.0664 48.7289 60.1582 48.695C60.3062 48.6351 60.3893 48.5589 60.4024 48.4709C60.4156 48.3828 60.3586 48.2848 60.2348 48.1828C60.1714 48.1202 60.1502 48.0609 60.1725 48.0085C60.1948 47.9562 60.2602 47.9118 60.3646 47.8781C60.7543 47.7222 60.65 47.6348 60.0124 47.3762C59.9089 47.3331 59.784 47.2928 59.6458 47.2579C59.5076 47.223 59.3591 47.1942 59.2097 47.1734C58.859 47.1313 58.5132 47.0999 58.1784 47.0799C57.9902 47.0475 57.7971 47.0737 57.5802 47.0611C56.4956 46.998 56.3369 46.8963 55.9856 46.6772L55.7296 46.519C55.2548 46.3909 54.7356 46.2846 54.2093 46.2076C53.683 46.1305 53.1628 46.0848 52.686 46.0737C52.4965 46.0728 52.2787 46.051 52.0659 46.0114C51.3733 45.8904 50.6719 45.8067 50.0082 45.7657C49.5946 45.7427 49.1488 45.6831 48.7243 45.5941C48.2997 45.5051 47.9146 45.3905 47.615 45.264C47.346 45.1501 46.9939 45.0478 46.608 44.9714C46.1561 44.8936 46.1143 44.8021 46.3666 44.7316C46.6189 44.6611 47.0415 44.5704 47.4166 44.4962C47.5471 44.4711 47.628 44.4301 47.6502 44.3779C47.6724 44.3257 47.6351 44.2644 47.5424 44.2007C47.4829 44.0918 47.4726 43.9884 47.5117 43.8931C47.5327 43.8535 47.5182 43.8081 47.4694 43.7599C47.4206 43.7117 47.3385 43.662 47.2288 43.6139C47.119 43.5659 46.9841 43.5207 46.8331 43.4814C46.6821 43.4421 46.5186 43.4096 46.3535 43.3861C45.6569 43.266 44.9792 43.1492 44.2688 43.0615C43.9712 43.0201 43.6738 42.9689 43.384 42.9089C42.7909 42.7608 42.1563 42.6379 41.5171 42.5475C41.2138 42.5071 40.9172 42.4364 40.6916 42.3507C39.98 42.1199 39.3243 41.8772 38.7364 41.627C38.5947 41.5494 38.4093 41.4738 38.1918 41.4047C37.9743 41.3357 37.7295 41.2747 37.4726 41.2258C37.2655 41.1901 37.0969 41.1115 36.9373 41.0592C36.8213 40.9381 36.8089 40.826 36.9013 40.7336C36.9937 40.6411 37.1878 40.5713 37.4654 40.5307C37.7287 40.4819 37.9751 40.4252 38.2027 40.3653C38.477 40.3169 38.8032 40.2878 39.169 40.2791C39.6023 40.2531 39.9226 40.1788 40.0884 40.0658C38.9023 39.8614 37.7744 39.5678 36.7348 39.6365L35.9449 39.4507C35.9764 39.3768 36.0039 39.3122 36.0295 39.2522C36.2173 39.1429 36.276 39.0051 36.2005 38.8504C36.1383 38.7756 36.1439 38.7076 36.2168 38.6531C36.2896 38.5986 36.4272 38.5597 36.6155 38.5403C37.731 38.3411 39.0209 38.2065 40.067 37.9804C40.395 37.938 40.7789 37.9187 41.2027 37.9234C41.6126 37.9098 41.5955 37.8077 41.1237 37.6818C40.8589 37.616 40.589 37.5529 40.315 37.4928C39.1068 37.4828 38.6146 37.7846 37.2358 37.7006L36.5968 37.3029C36.424 37.2968 36.2562 37.2944 36.0947 37.2957L33.7828 37.4573C33.5902 37.4654 33.4403 37.493 33.3501 37.537C33.26 37.5811 33.2331 37.6397 33.2726 37.7064C33.2882 37.7879 33.2564 37.8627 33.1782 37.928C33.1278 37.9737 33.16 38.0345 33.2679 38.0971C33.5109 38.2381 33.199 38.2587 33.0021 38.2942C32.9517 38.2976 32.8937 38.2972 32.8313 38.2931C32.7689 38.2889 32.7034 38.281 32.6386 38.2698C32.5738 38.2587 32.511 38.2444 32.4538 38.228C32.3967 38.2116 32.3462 38.1932 32.3055 38.1741C31.9585 38.0399 31.655 37.8984 31.3139 37.7504C31.5561 37.6087 31.2711 37.3762 31.649 37.2481C31.6913 37.2225 31.7082 37.1913 31.6987 37.1564C31.6892 37.1215 31.6536 37.0837 31.5939 37.0453C31.44 36.946 31.3667 36.8493 31.3814 36.7648C31.3961 36.6803 31.4982 36.6111 31.6776 36.564L31.6992 36.5132C31.2263 36.3425 31.3516 36.1906 31.1658 36.0099L30.7109 35.8918C29.5791 35.6075 29.5771 35.6121 28.6027 35.6226C28.4063 35.5144 28.6558 35.4979 28.8429 35.4856L30.4102 35.3642C31.435 35.2831 32.4895 35.227 33.6342 35.1963C34.7789 35.1656 36.0551 35.0634 37.2382 34.9898C37.2981 34.9841 37.3438 34.9728 37.3717 34.9569C37.3996 34.9411 37.4087 34.921 37.3984 34.8985C37.3514 34.8741 37.2898 34.8506 37.2183 34.8297C37.1467 34.8088 37.067 34.791 36.985 34.7776C36.6085 34.7127 36.2222 34.6709 35.8209 34.6166L35.0729 34.5224L34.8428 34.3985C34.693 34.3231 34.5907 34.2311 34.3915 34.1769C34.2273 34.1365 34.0491 34.1059 33.8754 34.0881C33.7017 34.0704 33.5389 34.0662 33.4039 34.0761C33.0296 34.1008 32.691 34.1366 32.3336 34.1691C31.9762 34.2017 31.7793 34.2372 31.4693 34.2531C30.8397 34.2604 30.2311 34.2796 29.6464 34.3106C29.1539 34.3841 28.6983 34.4711 28.2826 34.5712C28.0232 34.6107 27.7807 34.6581 27.3379 34.6066C27.1278 34.5598 26.9466 34.4984 26.8264 34.4333C26.7062 34.3681 26.6547 34.3033 26.6812 34.2505C26.7049 34.2091 26.7722 34.1764 26.8766 34.1553C26.981 34.1343 27.1192 34.1257 27.2779 34.1304C27.7224 34.1227 28.1335 34.0971 28.5028 34.054C29.0168 33.9759 29.6425 33.9422 30.3434 33.955C30.5811 33.9662 30.7405 33.9243 30.9484 33.9105C31.1563 33.8968 31.3325 33.8627 31.5643 33.8878C32.2844 33.9525 32.6297 33.8534 33.0613 33.789C33.2074 33.7605 33.2979 33.7144 33.3229 33.6557C33.3479 33.597 33.3064 33.5281 33.2029 33.4566C33.0037 33.314 32.76 33.1707 32.4757 33.0289C32.3293 32.9591 32.1418 32.8929 31.9279 32.8354C31.714 32.7779 31.4794 32.7306 31.2427 32.6974C31.1009 32.6101 31.0254 32.5243 31.0227 32.4477C31.02 32.371 31.0904 32.3061 31.2275 32.2586C31.5767 32.1503 31.8863 32.0401 32.6689 32.1006C33.0368 32.1237 33.383 32.1282 33.6938 32.1137C34.3833 32.094 35.1785 32.1372 36.0047 32.2395C36.2184 32.2657 36.4285 32.2835 36.6287 32.2925C38.057 32.3553 39.4177 32.3867 40.7824 32.4088C41.5054 32.4194 42.2343 32.4162 42.989 32.4472C44.7589 32.5143 46.37 32.4798 48.0784 32.5017C48.9731 32.5129 49.7739 32.4677 50.4389 32.3683C50.5684 32.335 50.6796 32.2961 50.7712 32.2521C50.3306 32.1367 49.8466 32.0453 49.3656 31.9867C48.8845 31.928 48.4226 31.9042 48.0241 31.9174C47.805 31.9497 47.5218 31.9556 47.2061 31.9344C46.8904 31.9133 46.5546 31.8659 46.2362 31.7975L47.162 31.7589C47.776 31.7408 48.4048 31.7352 49.0019 31.7092C49.9504 31.6646 50.8296 31.5931 51.8119 31.5641C52.605 31.5375 53.3146 31.4695 53.9187 31.3623C54.355 31.284 54.8534 31.2285 55.4036 31.1969C55.7948 31.1801 55.7948 31.1801 56.0448 31.02C55.8464 30.9164 55.5899 30.9019 55.3482 30.8999C53.8995 30.8347 52.5209 30.8233 51.2403 30.8659C50.5942 30.8696 50.021 30.9136 49.5483 30.9955C49.4325 31.0301 49.1363 31.0137 48.8986 31.0025C48.1535 30.9854 47.4412 30.9904 46.7705 31.0173C45.8432 31.0622 44.8104 31.0516 43.7123 30.9858C43.5041 30.9053 43.7438 30.9119 43.7556 30.8842C44.6061 30.8325 45.4398 30.773 46.3071 30.7292C46.5442 30.7136 46.7977 30.7059 47.0646 30.7062C48.0612 30.7333 48.8917 30.6581 49.4397 30.4911C49.4673 30.4264 49.8278 30.434 49.9871 30.3921C50.0655 30.3558 50.1176 30.3131 50.1421 30.2652C49.91 30.1459 49.6476 30.1452 49.4456 30.1451C48.8593 30.1584 48.2954 30.1837 47.7564 30.2207C47.2553 30.256 46.7007 30.2654 46.1075 30.2488C45.6698 30.2328 45.2955 30.2575 44.8538 30.2507C44.6142 30.2365 44.3662 30.2137 44.1148 30.1828C44.3947 30.0997 44.7752 30.0485 45.2295 30.033C45.574 29.9833 46.0047 29.9683 46.0598 29.839C45.8971 29.7466 45.7158 29.7451 45.5703 29.7547C45.2673 29.7543 44.9747 29.7601 44.6939 29.7721C44.0985 29.7984 43.4539 29.7988 42.7737 29.7732C42.4154 29.7636 42.0755 29.7665 41.7596 29.7818C41.0437 29.8021 40.3575 29.8474 39.702 29.8682C38.3592 29.8895 37.1345 29.9659 35.8442 30.0062C35.5571 30.0162 35.2997 30.0511 34.9212 29.9908C34.5427 29.9305 34.5258 29.9227 34.4812 29.8852C34.3752 29.8228 34.3432 29.7622 34.3915 29.7161C34.4666 29.6731 34.6128 29.6491 34.8042 29.6485C35.9576 29.58 37.0516 29.4838 38.0793 29.3605C38.5316 29.3358 38.9279 29.2855 39.2543 29.2112C39.5133 29.16 39.8204 29.1261 40.1661 29.1106C40.6689 29.0736 41.1931 29.0465 41.7365 29.0294C41.9894 29.0202 42.2043 28.9928 42.3688 28.9488C42.5333 28.9048 42.644 28.8451 42.6943 28.7732L42.0281 28.5344C41.9234 28.5233 41.8196 28.5137 41.7171 28.5056L36.1877 28.6776L35.6401 28.6823C35.0399 28.6681 34.8932 28.6329 34.3239 28.3563C35.6231 28.2912 36.6445 28.1016 37.2862 27.8063C37.132 27.7745 36.9739 27.7472 36.8156 27.7251C35.7772 27.6553 34.7957 27.6367 33.9088 27.6701C33.382 27.6735 32.8402 27.6644 32.2965 27.6599C32.4556 27.5237 33.0647 27.5643 33.4617 27.5336C34.4104 27.4856 35.2492 27.3864 35.9515 27.2391C36.1936 27.1817 36.4965 27.145 36.8463 27.1307C37.1965 27.1258 37.4889 27.091 37.6982 27.0295C37.9076 26.968 38.0275 26.8815 38.0475 26.7777C38.0804 26.6836 38.1515 26.5963 38.2596 26.5168C38.0684 26.4042 37.7647 26.2963 37.4056 26.2134C37.0465 26.1305 36.6567 26.0783 36.3093 26.0667C35.5676 26.0203 34.7983 25.9443 34.021 25.8407C33.6338 25.7885 33.2541 25.7585 32.9066 25.7527C32.6001 25.7483 32.2518 25.7105 31.9147 25.6453C31.5777 25.58 31.2704 25.4908 31.0397 25.3913C30.7284 25.2682 30.4378 25.1438 30.1472 25.0193C29.8567 24.8949 29.5195 24.7376 29.1804 24.585C28.8813 24.5611 28.5901 24.5458 28.3107 24.5392C28.0933 24.5448 27.8397 24.5281 27.5797 24.4912C27.3197 24.4543 27.0642 24.3987 26.8434 24.3309C26.9729 24.264 27.1193 24.205 27.2736 24.1275C27.0618 24.0251 26.9083 23.9208 26.8224 23.8207C26.7364 23.7207 26.7198 23.6271 26.7736 23.5456C26.8051 23.4718 26.5749 23.3478 26.4954 23.2498C26.393 23.1654 26.3738 23.0866 26.4402 23.0237C26.5066 22.9609 26.6556 22.9169 26.8677 22.8977C27.1307 22.8621 27.3447 22.8086 27.501 22.7392C27.5527 22.7212 27.579 22.6965 27.5775 22.6675C27.576 22.6384 27.5468 22.6059 27.4926 22.5729C27.4383 22.5399 27.3606 22.5074 27.2668 22.4784C27.1729 22.4495 27.0658 22.425 26.9553 22.4072C26.6166 22.3568 26.2803 22.3241 25.9656 22.311C25.4235 22.2869 24.9046 22.2718 24.4087 22.2656C23.8604 22.2564 23.2503 22.1991 22.6405 22.0996C22.0945 22.0055 21.6051 21.9211 21.3381 21.7413C21.0711 21.5615 20.6443 21.5672 20.3161 21.4363C20.5005 21.3182 20.8282 21.2362 21.2661 21.1985C21.5527 21.1851 21.7919 21.1498 21.9684 21.0948C22.1449 21.0399 22.2548 20.9666 22.2911 20.8796L21.2947 20.5145C20.4989 20.3427 20.0586 20.4749 19.1988 20.406L20.0847 20.2713C20.1025 20.2579 20.1092 20.2423 20.1044 20.2251C20.0184 19.9525 19.8815 19.8942 18.9759 19.7431L18.4676 19.6555L17.6632 19.5515C17.5343 19.4956 17.4452 19.4374 17.4047 19.3826C17.3642 19.3277 17.3738 19.2783 17.4324 19.2391C17.5503 19.1733 17.5861 19.0891 17.5367 18.9944C17.4586 18.9316 17.4522 18.8738 17.5185 18.8309C17.5847 18.788 17.7195 18.7627 17.8994 18.7595C18.043 18.7545 18.0536 18.682 18.1317 18.641C18.2093 18.5844 18.3422 18.541 18.5212 18.5137C18.7002 18.4863 18.9211 18.4758 19.169 18.4827C19.9 18.4884 20.5866 18.4672 21.2168 18.4194L21.1039 18.3999C21.7607 18.4419 22.3748 18.4469 22.9162 18.4149C23.4587 18.3746 24.155 18.4005 24.7313 18.3759C25.2005 18.3815 25.5577 18.3258 25.7271 18.2204C25.8912 18.1198 26.4874 18.1433 26.944 18.1625C27.2145 18.175 27.4759 18.1803 27.7254 18.1783C28.0604 18.1555 28.4792 18.177 28.912 18.2391C29.0419 18.2582 29.1698 18.2683 29.2835 18.2684C30.3838 18.2945 31.4821 18.3253 32.5675 18.3389C32.8181 18.331 33.1119 18.349 33.4144 18.3907C33.5416 18.4088 33.6653 18.4163 33.7691 18.4122C35.4842 18.3708 37.4195 18.4764 39.1009 18.4193C39.3047 18.4058 39.5303 18.403 39.7713 18.4109C40.313 18.4445 40.7834 18.4229 41.111 18.3494C41.2878 18.3104 41.5145 18.2888 41.7765 18.2862C42.0386 18.2836 42.3303 18.3 42.6331 18.3342C43.1369 18.3796 43.6026 18.3846 43.9809 18.3485C44.7186 18.3152 45.4944 18.3015 46.3021 18.3075C46.5496 18.3133 46.7672 18.3004 46.938 18.2696C47.1087 18.2389 47.2281 18.1912 47.2869 18.1303C47.0885 18.0267 46.8716 18.0141 46.6657 18.0232C45.8674 17.9996 45.0711 17.9714 44.2877 17.9602C43.5865 17.9285 42.9138 17.9188 42.2793 17.9313C41.9642 17.9453 41.5711 17.9132 41.1857 17.8419C40.7133 17.7515 40.2269 17.7066 39.8246 17.7163C39.5263 17.7187 39.2115 17.7109 38.8847 17.6931C38.6755 17.6715 38.4611 17.6346 38.2635 17.586C38.185 17.5649 38.0997 17.5471 38.0128 17.5339C37.926 17.5206 37.8397 17.5121 37.7592 17.509C37.6788 17.5059 37.606 17.5081 37.5457 17.5156C37.4853 17.5231 37.4387 17.5358 37.4087 17.5526C37.1061 17.6938 36.4295 17.6217 35.8501 17.6061C34.9819 17.3673 34.3357 17.5086 33.5242 17.3737C33.46 17.3648 33.3968 17.3594 33.3384 17.3578C33.28 17.3563 33.2276 17.3586 33.1845 17.3647C31.6141 17.4459 29.7838 17.3783 28.135 17.4063C27.9532 17.4104 27.7421 17.3963 27.5258 17.3657C26.1124 17.1631 24.7534 17.1056 23.7146 17.2044C23.5882 17.2133 23.4444 17.2137 23.2898 17.2055C22.5795 17.125 21.9003 17.0929 21.3088 17.1119C20.3819 17.1057 19.4906 17.1107 18.5488 17.0921C17.8995 17.0656 17.33 17.0939 16.8972 17.1742C16.8834 17.2065 16.5951 17.1717 16.3742 17.1683C16.2472 17.0869 16.1371 17.0134 16.0062 16.9413C15.8891 16.852 15.7138 16.7617 15.4921 16.6765C15.2704 16.5912 15.0075 16.513 14.7212 16.4472C14.2317 16.3628 14.1828 16.2404 14.5253 16.1953C15.4081 16.0463 16.5182 15.9853 17.774 16.0168C18.8237 16.0193 19.8923 16.0251 20.9569 16.0401C21.5779 16.053 22.2325 16.0815 22.8366 16.0865C23.0405 16.0975 23.2499 16.1137 23.4627 16.135C23.7238 16.1658 23.9773 16.1826 24.2095 16.1844C24.9553 16.1585 25.7876 16.1811 26.6667 16.2511C26.9887 16.2664 27.2979 16.2715 27.5897 16.2665C28.28 16.2475 29.0284 16.2615 29.8151 16.3081C30.304 16.3344 30.7781 16.3481 31.2324 16.3492C31.3928 16.3521 31.5235 16.33 31.678 16.3467C33.0383 16.5217 34.0014 16.3953 35.2257 16.4626C35.8207 16.4814 36.3891 16.4814 36.9231 16.4628C37.965 16.4637 39.0361 16.4828 40.1319 16.5202C41.5809 16.5817 42.9237 16.5603 44.3072 16.5857C44.5803 16.591 44.8441 16.5901 45.0965 16.583C46.3243 16.5358 47.6579 16.5458 49.0648 16.6128C49.3842 16.6225 49.6711 16.6106 49.9076 16.578C50.144 16.5454 50.3248 16.4928 50.4387 16.4234C50.4869 16.3757 50.4557 16.3138 50.3511 16.2496C50.1774 16.1677 49.9813 16.0873 49.766 16.01L41.9348 15.7505C41.6059 15.737 41.2851 15.7297 40.9741 15.7286C40.0595 15.7264 39.1168 15.7062 38.1506 15.6682C37.1958 15.6325 36.2837 15.6388 35.3587 15.6281C35.0863 15.6245 34.8066 15.616 34.5209 15.6026C32.5895 15.4968 30.7063 15.4321 28.8844 15.4091C28.1178 15.4059 27.2898 15.3573 26.5084 15.3416C25.727 15.3258 24.6584 15.3201 23.7314 15.3139L20.8616 15.3149C20.2971 15.3117 19.7475 15.3211 19.1998 15.3258C18.5353 14.9882 18.3063 14.9091 17.4195 14.7612C17.1161 14.7066 16.8075 14.6741 16.5299 14.6673C15.6496 14.694 14.545 14.5829 13.7102 14.5976C13.2065 14.5904 12.7791 14.6279 12.4717 14.7063C12.2049 14.7678 11.8998 14.8165 11.5611 14.8517C10.6332 14.5629 10.5514 14.3753 11.2494 14.3023C11.4385 14.2853 11.699 14.2906 11.8355 14.2546C11.9139 14.2328 12.0209 14.2202 12.1481 14.2181C12.2753 14.2159 12.4191 14.2242 12.5683 14.2422C13.0391 14.2894 13.4804 14.3005 13.8479 14.2744C14.1937 14.2398 14.6177 14.2412 15.0788 14.2784C15.4177 14.3368 15.7155 14.2543 16.0086 14.2305C16.3017 14.2067 16.5422 14.1639 16.9999 14.2279C17.0837 14.2407 17.1669 14.2483 17.2431 14.2503C17.3194 14.2523 17.3866 14.2485 17.4396 14.2393C17.9312 14.198 18.5179 14.2024 19.1519 14.2519C20.1244 14.3007 21.0368 14.3025 21.8575 14.2573C22.3487 14.2178 22.7676 14.1477 23.0977 14.0498C23.1877 14.0171 23.3213 13.9975 23.4857 13.9928C24.3114 14.0132 25.208 14.0901 26.1177 14.2185C26.4604 14.2699 26.8026 14.3106 27.1371 14.3397C27.8246 14.4043 28.4895 14.4405 29.1121 14.4472C30.0169 14.4483 30.9589 14.4731 31.9298 14.5215C32.529 14.5485 33.1063 14.5584 33.655 14.5513C34.2189 14.5479 34.821 14.5684 35.4477 14.6124C36.0709 14.6483 36.62 14.6277 37.029 14.5529C37.1637 14.5127 37.2722 14.4649 37.3524 14.4104C36.44 14.2332 35.4963 14.1432 34.7114 14.1584C34.4133 14.1467 34.1657 14.1585 33.8516 14.0895L33.8418 14.1126C33.7793 14.1276 33.6849 14.1311 33.5768 14.1225C33.4687 14.1139 33.3543 14.0938 33.2554 14.066C33.2927 13.9783 33.3281 13.8952 33.3537 13.8352C33.9517 13.8457 34.5324 13.8449 35.0927 13.8326C35.565 13.8149 36.2062 13.97 36.615 13.9116C37.4125 13.9846 37.9202 13.8838 38.6353 13.9129C39.3504 13.942 40.138 14.0381 40.8531 14.0672C41.4771 14.0832 42.083 14.0866 42.6674 14.0776C42.8691 14.0649 43.1016 14.0679 43.3507 14.0863C43.7009 14.1211 44.0266 14.1269 44.2904 14.1031C44.5543 14.0794 44.7457 14.027 44.8427 13.952C44.7513 13.8817 44.6283 13.7911 44.4864 13.6972C44.7474 13.6201 45.1439 13.5877 45.617 13.6047L46.2855 13.6009C46.4626 13.603 46.598 13.5821 46.6637 13.5427C46.7294 13.5033 46.7203 13.4483 46.6384 13.3892C45.3708 13.0914 45.3242 13.0585 44.3939 13.2501L43.1587 13.1611L43.1795 13.1597ZM59.8866 13.9777L59.7925 13.9615L59.8866 13.9777ZM213.818 45.6617L213.796 45.7125L213.82 45.6571L214.027 45.6928L214.04 45.6604L213.818 45.6617ZM183.751 23.3989C183.458 23.3435 183.162 23.2925 182.866 23.2464C182.788 23.2392 182.715 23.2376 182.654 23.2416C182.592 23.2457 182.544 23.2553 182.512 23.2697C182.489 23.3251 182.654 23.3635 182.805 23.3895C182.995 23.4244 183.189 23.4466 183.367 23.4538C183.545 23.461 183.701 23.4529 183.818 23.4303L183.988 23.4101L183.751 23.3989ZM32.9878 36.9039C33.1805 36.9132 33.3633 36.9147 33.5316 36.9084C34.2781 36.8636 34.9929 36.7985 35.7583 36.7569C36.724 36.6515 37.8337 36.6085 39.0457 36.6297C39.5192 36.6401 39.9193 36.6059 40.1991 36.5311C40.3667 36.4911 40.5829 36.4676 40.8347 36.4623L44.039 36.3405C44.237 36.3153 44.4083 36.2798 44.5487 36.2351C44.2663 36.1864 44.078 36.154 43.9651 36.1345C43.7307 36.129 43.5293 36.1439 43.3809 36.1775C43.2216 36.2346 42.9523 36.2572 42.6265 36.2408C42.2976 36.2272 41.9768 36.2199 41.6658 36.2189C41.0786 36.2218 40.4874 36.2339 39.8981 36.2414C39.6689 36.4001 38.9923 36.3281 38.4129 36.3125L37.9653 36.3196C36.5022 36.4018 35.1046 36.5151 33.7793 36.6587C33.5232 36.683 33.3025 36.7217 33.1241 36.7737C33.0569 36.8143 33.0353 36.8649 33.0612 36.9215L32.9671 36.9053L32.9878 36.9039ZM98.3235 52.0819C98.6784 52.0927 99.048 52.1149 99.4269 52.1482C99.7188 52.1821 100.004 52.2028 100.27 52.2092C101.762 52.2448 103.317 52.327 104.914 52.4547C105.123 52.474 105.324 52.4835 105.508 52.4828L106.816 52.4503C107.227 52.4321 107.235 52.4137 106.935 52.1687C106.687 52.1211 106.435 52.0777 106.182 52.0389C106.032 52.0129 105.787 51.9707 105.73 52.0104C105.381 52.1187 104.744 52.0486 104.208 52.0256C102.657 51.9664 101.057 51.879 99.4912 51.8073C99.1601 51.7898 98.8394 51.781 98.5325 51.7809C98.342 51.7772 98.1683 51.7841 98.0186 51.8013C97.9748 51.8031 97.9382 51.8082 97.9112 51.8164C97.8841 51.8245 97.8672 51.8355 97.8616 51.8486C97.856 51.8617 97.8619 51.8766 97.8788 51.8924C97.8957 51.9081 97.9232 51.9243 97.9596 51.9398C98.0877 51.9944 98.2358 52.0466 98.3988 52.0949L98.3235 52.0819ZM109.685 16.525L111.213 16.4959C111.397 16.4928 111.552 16.4601 111.748 16.4741C112.794 16.5184 113.763 16.5061 114.613 16.4376C114.902 16.4097 115.241 16.4041 115.61 16.4211C116.741 16.4717 117.807 16.4738 118.78 16.4273C119.409 16.418 119.998 16.3867 120.538 16.3338C120.579 16.3215 120.605 16.3048 120.614 16.2849C120.622 16.265 120.613 16.2423 120.587 16.2183C120.58 16.2032 120.562 16.1869 120.533 16.1706C120.504 16.1543 120.465 16.1384 120.419 16.1239C120.374 16.1095 120.322 16.0968 120.268 16.0868C120.214 16.0768 120.159 16.0697 120.106 16.0661C119.424 15.9945 118.777 15.9695 118.217 15.9933C117.698 16.0217 117.14 16.03 116.55 16.0181C115.985 16.0149 115.602 16.1075 114.905 16.0369C114.61 16.0136 114.35 16.0213 114.168 16.0586C113.803 16.1204 113.293 16.1238 112.729 16.0683C112.392 16.0401 112.07 16.0281 111.774 16.0326C111.059 16.0529 110.374 16.0935 109.711 16.1328C109.502 16.1419 109.278 16.1432 109.043 16.1366L105.721 16.0596C104.923 16.036 104.126 16.0078 103.343 15.9967C102.702 15.9725 102.106 15.9801 101.575 16.0191C101.009 16.0601 100.392 16.0768 99.7354 16.0687C98.7155 16.0912 97.7014 16.0998 96.5912 16.0967C95.8831 16.0986 95.1582 16.0926 94.4184 16.0741C94.0441 16.0503 93.7264 16.0697 93.5263 16.1285C93.4047 16.1769 93.1183 16.1375 92.8806 16.1262C91.6127 16.0179 90.4237 15.9923 89.3965 16.051C89.2653 16.0606 89.1213 16.0641 88.9677 16.0614C87.9783 16.0594 86.9533 16.0462 86.0036 16.0461C85.7536 16.0507 85.5183 16.0632 85.3006 16.0835C85.3239 16.1167 85.3904 16.1527 85.4862 16.1839C85.582 16.2152 85.6998 16.2394 85.8151 16.2515C86.7133 16.3442 87.5806 16.3932 88.3805 16.3963C89.7119 16.3845 91.1066 16.4111 92.55 16.4757C93.6699 16.5408 94.6912 16.5271 95.5376 16.4356C96.1993 16.3673 97.06 16.393 97.972 16.5082C98.3623 16.5633 98.7411 16.5853 99.0566 16.5713C99.3603 16.5529 99.7088 16.5573 100.082 16.5844C100.868 16.6359 101.624 16.6598 102.335 16.6556C103.03 16.6367 103.678 16.5849 104.392 16.5692C105.106 16.5535 106.194 16.5625 107.074 16.5358C107.954 16.5091 108.825 16.5055 109.685 16.525ZM46.3723 13.8241C46.453 13.9668 46.7385 14.0557 47.0456 14.0938C48.1044 14.2628 49.1512 14.3348 50.0102 14.2975C50.4742 14.2456 51.0928 14.2656 51.7444 14.3536C52.5032 14.4451 53.2123 14.4603 53.747 14.3964C53.8779 14.3853 53.9782 14.3617 54.0389 14.3278C54.0507 14.3001 54.0723 14.2493 54.0763 14.2401C54.0201 14.2167 53.9512 14.1949 53.8749 14.1766C53.7986 14.1583 53.717 14.1439 53.6363 14.1345L50.1291 13.971L49.5179 13.9351C48.4016 13.8409 47.3378 13.8033 46.3723 13.8241ZM53.271 16.0838C53.8184 16.317 53.8203 16.3124 54.1007 16.3656C55.4536 16.587 56.8055 16.7065 57.9957 16.7099C58.2602 16.7093 58.4847 16.6867 58.6501 16.6443C58.7352 16.6386 58.7894 16.6203 58.8008 16.5935C58.8123 16.5666 58.78 16.5335 58.7111 16.5012L58.2758 16.3369C57.4853 16.2658 56.7062 16.2093 55.9431 16.1678C55.0546 16.1187 54.2673 16.1168 53.3462 16.0968L53.271 16.0838ZM98.2579 51.0495C98.7679 51.3704 98.7699 51.3658 99.6238 51.4485C100.219 51.5072 100.796 51.5416 101.338 51.5508C102.001 51.5609 102.68 51.5789 103.341 51.5936C103.502 51.6039 103.639 51.5954 103.724 51.5698C103.81 51.5443 103.838 51.5035 103.804 51.4554C103.717 51.4032 103.582 51.3526 103.419 51.312C103.257 51.2714 103.077 51.2431 102.909 51.2317L102.548 51.2241C102.111 51.2081 101.656 51.1843 101.233 51.1808C100.959 51.194 100.641 51.1838 100.304 51.1507C99.9679 51.1176 99.6219 51.0627 99.2935 50.9901L98.2579 51.0495ZM55.9945 14.2436C56.1307 14.2992 56.2847 14.3524 56.4525 14.4019C57.1021 14.5389 57.7897 14.6168 58.3803 14.6202C58.6596 14.6287 58.915 14.5983 59.1994 14.6424C59.7094 14.7013 60.2037 14.7326 60.6555 14.7348C60.6555 14.7348 60.7822 14.7219 60.8238 14.7192L60.9103 14.516C60.6964 14.469 60.4733 14.4305 60.2514 14.4024C59.5065 14.3484 58.7745 14.3114 58.0445 14.2699C57.3145 14.2283 57.06 14.2092 56.5826 14.1913C56.3697 14.2011 56.1727 14.2187 55.9945 14.2436ZM39.8638 39.5017L40.8385 39.9176C41.154 39.9537 41.4487 39.9603 41.6778 39.9362C41.9069 39.9122 42.0578 39.8589 42.1077 39.7844C42.1879 39.7496 42.196 39.698 42.1301 39.6404C42.0642 39.5829 41.9294 39.5238 41.7542 39.4757C41.5855 39.4186 41.3929 39.3675 41.1883 39.3254C40.9838 39.2833 40.7716 39.2512 40.5651 39.2311L39.8638 39.5017ZM47.9798 37.4312C47.3423 37.3607 46.7325 37.3319 46.197 37.347C45.8597 37.3882 45.4026 37.375 44.9194 37.3101C44.0408 37.1807 43.1938 37.1449 42.5572 37.2102C42.5572 37.2102 42.5336 37.2656 42.4257 37.2817C42.3178 37.2978 42.7457 37.3369 42.8399 37.3531C43.5302 37.3928 44.2245 37.4233 44.8247 37.4375C45.1973 37.4369 45.5915 37.45 46.0003 37.4766C46.5629 37.5176 47.0964 37.5309 47.58 37.516C47.58 37.516 47.7671 37.5036 47.9779 37.4359L47.9798 37.4312ZM116.069 15.7716C115.764 15.6933 115.434 15.6296 115.103 15.5854C114.772 15.5412 114.448 15.5176 114.157 15.5163C113.933 15.5122 113.753 15.5329 113.643 15.5751C113.534 15.6173 113.502 15.6785 113.552 15.7492C113.778 15.7881 114.079 15.84 114.249 15.8692C114.836 15.8664 115.337 15.8288 116.069 15.7716ZM173.074 22.3713C172.83 22.3083 172.56 22.2601 172.297 22.2322C172.034 22.2043 171.787 22.198 171.585 22.2138C171.481 22.2206 171.551 22.2923 171.534 22.3338C171.522 22.3433 171.522 22.355 171.534 22.3678C171.546 22.3806 171.569 22.3939 171.601 22.4065C171.633 22.4191 171.672 22.4304 171.715 22.4393C171.758 22.4481 171.803 22.4542 171.845 22.4569C172.11 22.484 172.36 22.4921 172.573 22.4804C172.786 22.4687 172.956 22.4376 173.066 22.3898L173.074 22.3713ZM176.893 23.2726C176.855 23.2354 176.775 23.1966 176.667 23.1633C176.558 23.1301 176.429 23.1046 176.304 23.0916C176.081 23.0898 175.879 23.1002 175.704 23.1221C175.515 23.1391 175.651 23.2468 175.907 23.3107C176.015 23.3364 176.131 23.3564 176.245 23.3692C176.359 23.3819 176.468 23.3871 176.563 23.3843C176.659 23.3815 176.738 23.3708 176.794 23.353C176.851 23.3352 176.883 23.3108 176.889 23.2818L176.893 23.2726ZM65.9098 14.6393C65.3399 14.5064 64.9013 14.5398 64.4189 14.4864C63.9364 14.433 63.8176 14.4274 63.8822 14.5128C63.9468 14.5983 64.2776 14.581 64.4847 14.6167C64.7645 14.6641 65.0459 14.6913 65.2976 14.6953C65.5493 14.6992 65.7613 14.6799 65.9098 14.6393ZM184.653 37.1302C184.351 37.1003 184.056 37.0793 183.77 37.0673C183.733 37.0796 183.709 37.0958 183.701 37.1148C183.693 37.1339 183.701 37.1554 183.723 37.1781C183.723 37.1781 183.917 37.2461 184.03 37.2656C184.446 37.3323 184.466 37.2367 184.653 37.1302ZM227.313 49.5145C227.517 49.6043 227.612 49.6653 227.776 49.7084C227.851 49.7233 227.929 49.7342 228.003 49.7401C228.077 49.7461 228.147 49.747 228.206 49.7428C228.277 49.717 228.294 49.6774 228.253 49.632C228.253 49.632 228.045 49.5515 227.965 49.5478C227.739 49.5287 227.52 49.5176 227.313 49.5145ZM56.2103 13.8793C55.7773 13.8047 55.3631 13.7333 55.0633 13.8204C55.7508 13.9141 55.7509 13.9141 56.2103 13.8793ZM63.2233 14.7314C62.7861 14.5717 62.5296 14.5572 62.3197 14.5756C62.2751 14.5802 62.2455 14.5905 62.2356 14.6049C62.2256 14.6193 62.2357 14.6371 62.2644 14.6554C62.2931 14.6738 62.3388 14.6919 62.3946 14.7068C62.4504 14.7218 62.5133 14.7328 62.5737 14.7383C62.8017 14.7429 63.0192 14.7406 63.2233 14.7314ZM85.7264 14.7989C85.7363 14.7758 85.748 14.7481 85.6351 14.7286C85.6055 14.7187 85.5708 14.7102 85.5345 14.7039C85.4981 14.6977 85.4614 14.6939 85.428 14.6929C85.428 14.6929 85.4162 14.7206 85.4084 14.7391L85.7264 14.7989ZM101.353 53.1295L101.102 53.1506L101.215 53.1701L101.513 53.1818L101.353 53.1295ZM189.899 22.9123C189.805 22.8961 189.711 22.8798 189.697 22.9122C189.677 22.9172 189.665 22.9244 189.661 22.9332C189.657 22.9421 189.662 22.9523 189.675 22.963C189.675 22.963 189.807 22.9857 189.864 22.9954L189.899 22.9123ZM175.239 23.1708C175.177 23.169 175.121 23.1711 175.075 23.1772L175.063 23.2049L175.251 23.2373L175.239 23.1708ZM47.4826 29.7721C47.4099 29.7552 47.3329 29.7419 47.2567 29.7331L47.1626 29.7169C47.1626 29.7169 47.2637 29.7641 47.3202 29.7738C47.3767 29.7835 47.4222 29.7716 47.4826 29.7721Z" fill="#FFC600"/>
  </g>
</svg>