<svg width="20" height="20" viewBox="0 0 20 20" fill="none" xmlns="http://www.w3.org/2000/svg">
<g id="Icon/AI">
<path id="Vector" fill-rule="evenodd" clip-rule="evenodd" d="M15.8333 1.66663C16.1023 2.9192 17.0808 3.89765 18.3333 4.16663C17.0808 4.4356 16.1023 5.41405 15.8333 6.66663C15.5644 5.41405 14.5859 4.4356 13.3333 4.16663C14.5859 3.89765 15.5644 2.9192 15.8333 1.66663ZM7.56004 1.8333C8.31962 5.37056 11.0828 8.13371 14.62 8.8933C11.0828 9.65288 8.31962 12.416 7.56004 15.9533C6.80046 12.416 4.0373 9.65288 0.500038 8.8933C4.0373 8.13371 6.80046 5.37056 7.56004 1.8333ZM18.3333 15C16.6632 14.6413 15.3586 13.3367 15 11.6666C14.6414 13.3367 13.3368 14.6413 11.6667 15C13.3368 15.3586 14.6414 16.6632 15 18.3333C15.3586 16.6632 16.6632 15.3586 18.3333 15Z" fill="#3980F3"/>
</g>
</svg>
