<svg width="169" height="44" viewBox="0 0 169 44" fill="none" xmlns="http://www.w3.org/2000/svg">
<rect x="-0.00012207" y="5.17819" width="7.06029" height="32.6539" fill="#353535"/>
<rect x="-0.00012207" y="38.7145" width="7.06029" height="2.64761" fill="#353535"/>
<rect y="0.76545" width="7.06029" height="3.53015" fill="#353535"/>
<rect x="36.3971" y="8.37812" width="7.06029" height="32.6539" transform="rotate(-20.6384 36.3971 8.37812)" fill="url(#paint0_linear_7276_1933)"/>
<rect x="48.2178" y="39.7622" width="7.06029" height="2.64761" transform="rotate(-20.6384 48.2178 39.7622)" fill="url(#paint1_linear_7276_1933)"/>
<rect x="34.8419" y="4.24864" width="7.06029" height="3.53015" transform="rotate(-20.6384 34.8419 4.24864)" fill="url(#paint2_linear_7276_1933)"/>
<rect x="18.5327" y="7.82577" width="7.06029" height="30.0062" fill="#353535"/>
<rect x="18.5327" y="38.7145" width="7.06029" height="2.64761" fill="#353535"/>
<rect x="18.533" y="0.765512" width="7.06029" height="3.53015" fill="#353535"/>
<rect x="18.5327" y="5.1782" width="7.06029" height="1.76507" fill="#353535"/>
<rect x="8.82495" y="38.7146" width="7.94283" height="2.64761" fill="#353535"/>
<rect x="8.82483" y="11.356" width="7.94283" height="2.64761" fill="#353535"/>
<path fill-rule="evenodd" clip-rule="evenodd" d="M8.82495 14.8862H16.7678V37.8321H8.82495V14.8862ZM11.473 36.067V16.6512H12.3555V36.067H11.473ZM13.2386 16.6512V36.067H14.1211L14.1211 16.6512H13.2386Z" fill="#353535"/>
<rect x="27.3586" y="38.7146" width="7.94283" height="2.64761" fill="#353535"/>
<rect x="27.3588" y="11.356" width="7.94283" height="2.64761" fill="#353535"/>
<path fill-rule="evenodd" clip-rule="evenodd" d="M35.3015 14.8862H27.3586V37.8321H35.3015V14.8862ZM30.8883 36.067C31.8631 36.067 32.6534 35.2767 32.6534 34.3019C32.6534 33.3271 31.8631 32.5369 30.8883 32.5369C29.9135 32.5369 29.1232 33.3271 29.1232 34.3019C29.1232 35.2767 29.9135 36.067 30.8883 36.067Z" fill="#353535"/>
<path d="M68.4244 38.0132C67.6466 38.0132 66.946 37.8747 66.3226 37.5976C65.7046 37.3153 65.2145 36.8997 64.8522 36.351C64.4953 35.8022 64.3168 35.1256 64.3168 34.3211C64.3168 33.6285 64.4446 33.0558 64.7004 32.603C64.9561 32.1501 65.3051 31.7879 65.7473 31.5161C66.1894 31.2444 66.6876 31.0393 67.2417 30.9008C67.8011 30.757 68.3791 30.6531 68.9758 30.5891C69.695 30.5145 70.2784 30.448 70.7259 30.3893C71.1734 30.3254 71.4984 30.2295 71.7009 30.1017C71.9087 29.9685 72.0125 29.7634 72.0125 29.4863V29.4384C72.0125 28.8363 71.8341 28.3702 71.4771 28.0399C71.1202 27.7096 70.6061 27.5444 69.9348 27.5444C69.2262 27.5444 68.6641 27.6989 68.2486 28.0079C67.8383 28.3169 67.5613 28.6818 67.4175 29.1027L64.7164 28.7191C64.9295 27.9733 65.2811 27.3499 65.7712 26.8491C66.2614 26.343 66.8607 25.9648 67.5693 25.7144C68.2779 25.4586 69.061 25.3308 69.9188 25.3308C70.5102 25.3308 71.0989 25.4 71.6849 25.5385C72.2709 25.6771 72.8064 25.9061 73.2912 26.2258C73.776 26.5401 74.1649 26.969 74.4579 27.5124C74.7563 28.0558 74.9054 28.7351 74.9054 29.5502V37.7654H72.1244V36.0793H72.0285C71.8527 36.4202 71.605 36.7399 71.2853 37.0382C70.971 37.3312 70.5741 37.5683 70.0946 37.7495C69.6204 37.9253 69.0637 38.0132 68.4244 38.0132ZM69.1756 35.8875C69.7563 35.8875 70.2598 35.7729 70.686 35.5438C71.1122 35.3094 71.4398 35.0004 71.6689 34.6168C71.9033 34.2332 72.0205 33.815 72.0205 33.3622V31.9157C71.93 31.9903 71.7755 32.0596 71.557 32.1235C71.3439 32.1874 71.1042 32.2434 70.8378 32.2913C70.5714 32.3393 70.3077 32.3819 70.0467 32.4192C69.7856 32.4565 69.5592 32.4884 69.3674 32.5151C68.9358 32.5737 68.5496 32.6696 68.2086 32.8028C67.8677 32.936 67.5986 33.1224 67.4015 33.3622C67.2044 33.5966 67.1058 33.9003 67.1058 34.2732C67.1058 34.806 67.3003 35.2082 67.6892 35.4799C68.0781 35.7516 68.5736 35.8875 69.1756 35.8875ZM83.1686 38.0052C81.9432 38.0052 80.891 37.7361 80.012 37.1981C79.1382 36.66 78.4643 35.9168 77.9901 34.9684C77.5213 34.0148 77.2869 32.9173 77.2869 31.676C77.2869 30.4293 77.5266 29.3292 78.0061 28.3755C78.4856 27.4165 79.1622 26.6707 80.036 26.1379C80.915 25.5998 81.9539 25.3308 83.1526 25.3308C84.1489 25.3308 85.0306 25.5146 85.7978 25.8822C86.5703 26.2445 87.1856 26.7586 87.6438 27.4245C88.102 28.0851 88.363 28.8577 88.427 29.742H85.6619C85.55 29.1507 85.2837 28.6579 84.8628 28.2636C84.4472 27.8641 83.8905 27.6643 83.1926 27.6643C82.6012 27.6643 82.0818 27.8241 81.6342 28.1438C81.1867 28.4581 80.8378 28.9109 80.5874 29.5023C80.3423 30.0937 80.2198 30.8022 80.2198 31.628C80.2198 32.4645 80.3423 33.1837 80.5874 33.7857C80.8324 34.3824 81.1761 34.8432 81.6183 35.1682C82.0658 35.4879 82.5906 35.6477 83.1926 35.6477C83.6188 35.6477 83.9997 35.5678 84.3353 35.408C84.6763 35.2428 84.9613 35.0057 85.1904 34.6967C85.4195 34.3877 85.5767 34.0121 85.6619 33.5699H88.427C88.3577 34.4383 88.102 35.2082 87.6598 35.8795C87.2176 36.5454 86.6156 37.0675 85.8537 37.4458C85.0919 37.8187 84.1968 38.0052 83.1686 38.0052ZM96.1567 38.0052C94.9313 38.0052 93.8791 37.7361 93.0001 37.1981C92.1263 36.66 91.4524 35.9168 90.9782 34.9684C90.5094 34.0148 90.275 32.9173 90.275 31.676C90.275 30.4293 90.5147 29.3292 90.9942 28.3755C91.4737 27.4165 92.1503 26.6707 93.024 26.1379C93.9031 25.5998 94.942 25.3308 96.1407 25.3308C97.137 25.3308 98.0187 25.5146 98.7859 25.8822C99.5584 26.2445 100.174 26.7586 100.632 27.4245C101.09 28.0851 101.351 28.8577 101.415 29.742H98.65C98.5381 29.1507 98.2718 28.6579 97.8509 28.2636C97.4353 27.8641 96.8786 27.6643 96.1807 27.6643C95.5893 27.6643 95.0699 27.8241 94.6223 28.1438C94.1748 28.4581 93.8259 28.9109 93.5755 29.5023C93.3304 30.0937 93.2078 30.8022 93.2078 31.628C93.2078 32.4645 93.3304 33.1837 93.5755 33.7857C93.8205 34.3824 94.1642 34.8432 94.6063 35.1682C95.0539 35.4879 95.5786 35.6477 96.1807 35.6477C96.6069 35.6477 96.9878 35.5678 97.3234 35.408C97.6644 35.2428 97.9494 35.0057 98.1785 34.6967C98.4076 34.3877 98.5648 34.0121 98.65 33.5699H101.415C101.346 34.4383 101.09 35.2082 100.648 35.8795C100.206 36.5454 99.6037 37.0675 98.8418 37.4458C98.08 37.8187 97.1849 38.0052 96.1567 38.0052ZM109.225 38.0052C107.994 38.0052 106.931 37.7495 106.036 37.238C105.146 36.7212 104.462 35.9913 103.982 35.0484C103.503 34.1 103.263 32.9839 103.263 31.6999C103.263 30.4373 103.503 29.3292 103.982 28.3755C104.467 27.4165 105.144 26.6707 106.012 26.1379C106.881 25.5998 107.901 25.3308 109.073 25.3308C109.829 25.3308 110.543 25.4533 111.215 25.6984C111.891 25.9381 112.488 26.311 113.005 26.8172C113.527 27.3233 113.937 27.9679 114.235 28.7511C114.534 29.5289 114.683 30.4559 114.683 31.5321V32.4192H104.622V30.4693H111.91C111.904 29.9152 111.785 29.4224 111.55 28.9908C111.316 28.554 110.988 28.2103 110.567 27.96C110.152 27.7096 109.667 27.5844 109.113 27.5844C108.521 27.5844 108.002 27.7282 107.554 28.0159C107.107 28.2983 106.758 28.6712 106.508 29.1347C106.263 29.5929 106.137 30.0963 106.132 30.6451V32.3473C106.132 33.0612 106.263 33.6738 106.524 34.1853C106.785 34.6914 107.15 35.0803 107.618 35.352C108.087 35.6184 108.636 35.7516 109.265 35.7516C109.686 35.7516 110.066 35.693 110.407 35.5758C110.748 35.4533 111.044 35.2748 111.294 35.0404C111.545 34.806 111.734 34.5156 111.862 34.1693L114.563 34.473C114.392 35.1869 114.068 35.8102 113.588 36.343C113.114 36.8704 112.507 37.2806 111.766 37.5737C111.025 37.8613 110.178 38.0052 109.225 38.0052ZM126.832 28.7351L124.195 29.0228C124.12 28.7564 123.99 28.506 123.803 28.2716C123.622 28.0372 123.377 27.8481 123.068 27.7042C122.759 27.5604 122.381 27.4885 121.933 27.4885C121.331 27.4885 120.825 27.619 120.415 27.88C120.01 28.1411 119.81 28.4794 119.815 28.8949C119.81 29.2519 119.941 29.5423 120.207 29.766C120.479 29.9898 120.926 30.1736 121.549 30.3174L123.643 30.7649C124.805 31.0153 125.668 31.4123 126.232 31.9557C126.803 32.4991 127.09 33.2103 127.096 34.0894C127.09 34.8619 126.864 35.5438 126.416 36.1352C125.974 36.7212 125.359 37.1794 124.57 37.5097C123.782 37.84 122.876 38.0052 121.853 38.0052C120.351 38.0052 119.141 37.6909 118.225 37.0622C117.309 36.4282 116.763 35.5465 116.587 34.417L119.408 34.1453C119.536 34.6994 119.807 35.1176 120.223 35.4C120.638 35.6823 121.179 35.8235 121.845 35.8235C122.532 35.8235 123.084 35.6823 123.499 35.4C123.92 35.1176 124.131 34.7687 124.131 34.3531C124.131 34.0015 123.995 33.7111 123.723 33.482C123.457 33.2529 123.041 33.0771 122.477 32.9546L120.383 32.5151C119.205 32.27 118.334 31.8571 117.77 31.2764C117.205 30.6904 116.925 29.9498 116.93 29.0548C116.925 28.2983 117.13 27.643 117.546 27.0889C117.967 26.5295 118.55 26.0979 119.296 25.7943C120.047 25.4853 120.913 25.3308 121.893 25.3308C123.332 25.3308 124.464 25.6371 125.289 26.2498C126.121 26.8625 126.635 27.6909 126.832 28.7351ZM139.183 28.7351L136.545 29.0228C136.471 28.7564 136.34 28.506 136.154 28.2716C135.973 28.0372 135.728 27.8481 135.419 27.7042C135.11 27.5604 134.731 27.4885 134.284 27.4885C133.682 27.4885 133.176 27.619 132.765 27.88C132.361 28.1411 132.161 28.4794 132.166 28.8949C132.161 29.2519 132.291 29.5423 132.558 29.766C132.829 29.9898 133.277 30.1736 133.9 30.3174L135.994 30.7649C137.155 31.0153 138.019 31.4123 138.583 31.9557C139.153 32.4991 139.441 33.2103 139.446 34.0894C139.441 34.8619 139.215 35.5438 138.767 36.1352C138.325 36.7212 137.71 37.1794 136.921 37.5097C136.133 37.84 135.227 38.0052 134.204 38.0052C132.702 38.0052 131.492 37.6909 130.576 37.0622C129.659 36.4282 129.113 35.5465 128.938 34.417L131.759 34.1453C131.886 34.6994 132.158 35.1176 132.574 35.4C132.989 35.6823 133.53 35.8235 134.196 35.8235C134.883 35.8235 135.435 35.6823 135.85 35.4C136.271 35.1176 136.482 34.7687 136.482 34.3531C136.482 34.0015 136.346 33.7111 136.074 33.482C135.808 33.2529 135.392 33.0771 134.827 32.9546L132.734 32.5151C131.556 32.27 130.685 31.8571 130.12 31.2764C129.556 30.6904 129.276 29.9498 129.281 29.0548C129.276 28.2983 129.481 27.643 129.897 27.0889C130.317 26.5295 130.901 26.0979 131.647 25.7943C132.398 25.4853 133.264 25.3308 134.244 25.3308C135.682 25.3308 136.814 25.6371 137.64 26.2498C138.471 26.8625 138.985 27.6909 139.183 28.7351ZM160.056 37.9812C159.092 37.9812 158.229 37.7335 157.467 37.238C156.705 36.7425 156.103 36.0233 155.661 35.0803C155.219 34.1373 154.998 32.9919 154.998 31.644C154.998 30.2801 155.221 29.1294 155.669 28.1917C156.122 27.2487 156.732 26.5375 157.499 26.058C158.266 25.5732 159.121 25.3308 160.064 25.3308C160.783 25.3308 161.375 25.4533 161.838 25.6984C162.302 25.9381 162.669 26.2285 162.941 26.5694C163.213 26.9051 163.423 27.2221 163.572 27.5204H163.692V21.399H166.593V37.7654H163.748V35.8315H163.572C163.423 36.1299 163.208 36.4469 162.925 36.7825C162.643 37.1128 162.27 37.3952 161.806 37.6296C161.343 37.864 160.76 37.9812 160.056 37.9812ZM160.863 35.6078C161.476 35.6078 161.998 35.4426 162.43 35.1123C162.861 34.7767 163.189 34.3105 163.413 33.7138C163.636 33.1171 163.748 32.4218 163.748 31.628C163.748 30.8342 163.636 30.1443 163.413 29.5582C163.194 28.9722 162.869 28.5167 162.438 28.1917C162.012 27.8667 161.487 27.7042 160.863 27.7042C160.219 27.7042 159.681 27.872 159.249 28.2077C158.818 28.5433 158.493 29.0068 158.274 29.5982C158.056 30.1896 157.947 30.8662 157.947 31.628C157.947 32.3952 158.056 33.0798 158.274 33.6818C158.498 34.2785 158.826 34.75 159.257 35.0963C159.694 35.4373 160.229 35.6078 160.863 35.6078Z" fill="#353535"/>
<path d="M141.96 37.7654V21.399H152.604V23.8843H144.924V28.3276H152.053V30.8129H144.924V35.2801H152.668V37.7654H141.96Z" fill="url(#paint3_linear_7276_1933)"/>
<defs>
<linearGradient id="paint0_linear_7276_1933" x1="39.9272" y1="8.37812" x2="39.9272" y2="41.032" gradientUnits="userSpaceOnUse">
<stop stop-color="#4AA0F3"/>
<stop offset="1" stop-color="#377CF3"/>
</linearGradient>
<linearGradient id="paint1_linear_7276_1933" x1="51.7479" y1="39.7622" x2="51.7479" y2="42.4098" gradientUnits="userSpaceOnUse">
<stop stop-color="#4AA0F3"/>
<stop offset="1" stop-color="#377CF3"/>
</linearGradient>
<linearGradient id="paint2_linear_7276_1933" x1="38.3721" y1="4.24864" x2="38.3721" y2="7.77879" gradientUnits="userSpaceOnUse">
<stop stop-color="#4AA0F3"/>
<stop offset="1" stop-color="#377CF3"/>
</linearGradient>
<linearGradient id="paint3_linear_7276_1933" x1="133.318" y1="24.6131" x2="159.822" y2="25.2849" gradientUnits="userSpaceOnUse">
<stop stop-color="#5AC0F4"/>
<stop offset="1" stop-color="#2D69F2"/>
</linearGradient>
</defs>
</svg>
