<svg width="246" height="143" viewBox="0 0 246 143" fill="none" xmlns="http://www.w3.org/2000/svg">
<rect y="6.85938" width="10.9734" height="50.7522" fill="#F7F7F7"/>
<rect y="58.9834" width="10.9734" height="4.11504" fill="#F7F7F7"/>
<rect y="0.000976562" width="10.9734" height="5.48672" fill="#F7F7F7"/>
<rect x="56.5711" y="11.832" width="10.9734" height="50.7522" transform="rotate(-20.6384 56.5711 11.832)" fill="url(#paint0_linear_7219_2046)"/>
<rect x="74.9434" y="60.6108" width="10.9734" height="4.11504" transform="rotate(-20.6384 74.9434 60.6108)" fill="url(#paint1_linear_7219_2046)"/>
<rect x="54.1536" y="5.41357" width="10.9734" height="5.48672" transform="rotate(-20.6384 54.1536 5.41357)" fill="url(#paint2_linear_7219_2046)"/>
<rect x="28.8046" y="10.9736" width="10.9734" height="46.6371" fill="#F7F7F7"/>
<rect x="28.8046" y="58.9829" width="10.9734" height="4.11504" fill="#F7F7F7"/>
<rect x="28.8046" y="0.000488281" width="10.9734" height="5.48672" fill="#F7F7F7"/>
<rect x="28.8046" y="6.85938" width="10.9734" height="2.74336" fill="#F7F7F7"/>
<rect x="13.7162" y="58.9829" width="12.3451" height="4.11504" fill="#F7F7F7"/>
<rect x="13.7162" y="16.4609" width="12.3451" height="4.11504" fill="#F7F7F7"/>
<path fill-rule="evenodd" clip-rule="evenodd" d="M13.7162 21.9478H26.0614V57.6115H13.7162V21.9478ZM17.8316 54.868V24.691H19.6602V54.868H17.8316ZM20.5747 24.691V54.868H22.4032V24.691H20.5747Z" fill="#F7F7F7"/>
<rect x="42.5213" y="58.9829" width="12.3451" height="4.11504" fill="#F7F7F7"/>
<rect x="42.5214" y="16.4609" width="12.3451" height="4.11504" fill="#F7F7F7"/>
<path fill-rule="evenodd" clip-rule="evenodd" d="M54.8655 21.9478H42.5204V57.6115H54.8655V21.9478ZM48.0077 54.8682C49.5228 54.8682 50.751 53.6399 50.751 52.1248C50.751 50.6097 49.5228 49.3815 48.0077 49.3815C46.4926 49.3815 45.2643 50.6097 45.2643 52.1248C45.2643 53.6399 46.4926 54.8682 48.0077 54.8682Z" fill="#F7F7F7"/>
<path d="M8.4097 123.422C7.10629 123.422 5.93232 123.19 4.8878 122.726C3.85221 122.253 3.03088 121.557 2.42382 120.637C1.82567 119.718 1.5266 118.584 1.5266 117.236C1.5266 116.075 1.74086 115.115 2.16938 114.357C2.5979 113.598 3.18265 112.991 3.92363 112.535C4.66462 112.08 5.49934 111.736 6.4278 111.504C7.36518 111.263 8.33382 111.089 9.3337 110.982C10.5389 110.857 11.5165 110.745 12.2664 110.647C13.0163 110.54 13.5609 110.379 13.9001 110.165C14.2483 109.942 14.4224 109.598 14.4224 109.134V109.054C14.4224 108.045 14.1233 107.264 13.5252 106.71C12.927 106.157 12.0655 105.88 10.9406 105.88C9.75329 105.88 8.81144 106.139 8.11509 106.657C7.42768 107.174 6.96345 107.786 6.7224 108.491L2.19616 107.848C2.55326 106.599 3.14248 105.554 3.96381 104.715C4.78514 103.867 5.78948 103.233 6.97684 102.813C8.1642 102.385 9.47654 102.171 10.9139 102.171C11.9048 102.171 12.8913 102.287 13.8733 102.519C14.8554 102.751 15.7526 103.135 16.565 103.67C17.3774 104.197 18.0291 104.916 18.5201 105.826C19.02 106.737 19.27 107.875 19.27 109.241V123.007H14.6098V120.182H14.4492C14.1545 120.753 13.7394 121.289 13.2038 121.789C12.677 122.28 12.0119 122.677 11.2085 122.981C10.4139 123.275 9.481 123.422 8.4097 123.422ZM9.66848 119.86C10.6416 119.86 11.4852 119.668 12.1994 119.285C12.9136 118.892 13.4627 118.374 13.8465 117.731C14.2394 117.088 14.4358 116.388 14.4358 115.629V113.205C14.284 113.33 14.0251 113.446 13.6591 113.553C13.302 113.66 12.9002 113.754 12.4539 113.834C12.0075 113.915 11.5656 113.986 11.1281 114.049C10.6907 114.111 10.3113 114.165 9.98987 114.209C9.26674 114.307 8.6195 114.468 8.04814 114.691C7.47678 114.915 7.02594 115.227 6.69562 115.629C6.36531 116.022 6.20015 116.53 6.20015 117.155C6.20015 118.048 6.526 118.722 7.17771 119.177C7.82941 119.633 8.65967 119.86 9.66848 119.86ZM33.1165 123.409C31.0632 123.409 29.3 122.958 27.827 122.057C26.3629 121.155 25.2336 119.909 24.439 118.32C23.6534 116.722 23.2606 114.883 23.2606 112.803C23.2606 110.714 23.6623 108.871 24.4658 107.273C25.2693 105.666 26.4031 104.416 27.8672 103.523C29.3402 102.621 31.0811 102.171 33.0898 102.171C34.7592 102.171 36.2367 102.479 37.5223 103.095C38.8168 103.702 39.8479 104.563 40.6156 105.679C41.3834 106.786 41.8209 108.081 41.928 109.563H37.2946C37.1071 108.572 36.6608 107.746 35.9555 107.085C35.2591 106.416 34.3262 106.081 33.1567 106.081C32.1658 106.081 31.2953 106.349 30.5454 106.884C29.7955 107.411 29.2108 108.17 28.7912 109.161C28.3805 110.152 28.1752 111.339 28.1752 112.723C28.1752 114.124 28.3805 115.33 28.7912 116.338C29.2018 117.338 29.7777 118.111 30.5186 118.655C31.2686 119.191 32.1479 119.459 33.1567 119.459C33.8709 119.459 34.5092 119.325 35.0717 119.057C35.643 118.78 36.1207 118.383 36.5045 117.865C36.8884 117.347 37.1518 116.718 37.2946 115.977H41.928C41.8119 117.432 41.3834 118.722 40.6424 119.847C39.9014 120.963 38.8926 121.838 37.616 122.472C36.3394 123.097 34.8396 123.409 33.1165 123.409ZM54.8807 123.409C52.8273 123.409 51.0642 122.958 49.5911 122.057C48.127 121.155 46.9977 119.909 46.2031 118.32C45.4175 116.722 45.0247 114.883 45.0247 112.803C45.0247 110.714 45.4264 108.871 46.2299 107.273C47.0334 105.666 48.1672 104.416 49.6313 103.523C51.1043 102.621 52.8452 102.171 54.8539 102.171C56.5233 102.171 58.0008 102.479 59.2864 103.095C60.5809 103.702 61.612 104.563 62.3798 105.679C63.1475 106.786 63.585 108.081 63.6921 109.563H59.0587C58.8713 108.572 58.4249 107.746 57.7196 107.085C57.0233 106.416 56.0903 106.081 54.9208 106.081C53.9299 106.081 53.0595 106.349 52.3095 106.884C51.5596 107.411 50.9749 108.17 50.5553 109.161C50.1446 110.152 49.9393 111.339 49.9393 112.723C49.9393 114.124 50.1446 115.33 50.5553 116.338C50.966 117.338 51.5418 118.111 52.2828 118.655C53.0327 119.191 53.912 119.459 54.9208 119.459C55.635 119.459 56.2734 119.325 56.8358 119.057C57.4071 118.78 57.8848 118.383 58.2687 117.865C58.6525 117.347 58.9159 116.718 59.0587 115.977H63.6921C63.576 117.432 63.1475 118.722 62.4065 119.847C61.6656 120.963 60.6568 121.838 59.3801 122.472C58.1035 123.097 56.6037 123.409 54.8807 123.409ZM76.7787 123.409C74.7165 123.409 72.9354 122.981 71.4356 122.124C69.9447 121.258 68.7975 120.034 67.994 118.454C67.1906 116.865 66.7888 114.995 66.7888 112.843C66.7888 110.728 67.1906 108.871 67.994 107.273C68.8064 105.666 69.9402 104.416 71.3954 103.523C72.8506 102.621 74.5602 102.171 76.5243 102.171C77.792 102.171 78.9883 102.376 80.1131 102.787C81.2469 103.188 82.2468 103.813 83.1128 104.661C83.9877 105.509 84.6751 106.59 85.175 107.902C85.675 109.205 85.9249 110.759 85.9249 112.562V114.049H69.0653V110.781H81.2782C81.2692 109.853 81.0684 109.027 80.6756 108.304C80.2827 107.572 79.7337 106.996 79.0284 106.576C78.3321 106.157 77.5197 105.947 76.5912 105.947C75.6003 105.947 74.7298 106.188 73.9799 106.67C73.23 107.143 72.6453 107.768 72.2257 108.545C71.815 109.313 71.6052 110.156 71.5963 111.076V113.928C71.5963 115.124 71.815 116.151 72.2525 117.008C72.6899 117.856 73.3014 118.508 74.0871 118.963C74.8727 119.41 75.7922 119.633 76.8457 119.633C77.5509 119.633 78.1892 119.535 78.7606 119.338C79.332 119.133 79.8274 118.834 80.247 118.441C80.6666 118.048 80.9836 117.562 81.1978 116.981L85.7241 117.49C85.4384 118.686 84.8938 119.731 84.0903 120.624C83.2958 121.508 82.278 122.195 81.0371 122.686C79.7962 123.168 78.3767 123.409 76.7787 123.409ZM106.283 107.875L101.864 108.357C101.739 107.911 101.52 107.491 101.208 107.099C100.904 106.706 100.493 106.389 99.9757 106.148C99.4579 105.907 98.824 105.786 98.0741 105.786C97.0653 105.786 96.2172 106.005 95.5298 106.442C94.8513 106.88 94.5165 107.447 94.5254 108.143C94.5165 108.741 94.7352 109.228 95.1816 109.603C95.6369 109.978 96.3868 110.286 97.4313 110.527L100.94 111.277C102.886 111.696 104.332 112.361 105.279 113.272C106.234 114.182 106.716 115.374 106.725 116.847C106.716 118.142 106.337 119.285 105.587 120.276C104.846 121.258 103.815 122.025 102.493 122.579C101.172 123.132 99.6543 123.409 97.9402 123.409C95.4227 123.409 93.3961 122.882 91.8606 121.829C90.3251 120.767 89.41 119.289 89.1154 117.396L93.8425 116.941C94.0568 117.87 94.5121 118.57 95.2084 119.044C95.9047 119.517 96.8109 119.753 97.9268 119.753C99.0785 119.753 100.002 119.517 100.699 119.044C101.404 118.57 101.757 117.986 101.757 117.289C101.757 116.7 101.529 116.213 101.074 115.83C100.627 115.446 99.931 115.151 98.9847 114.946L95.4762 114.209C93.5032 113.799 92.0436 113.107 91.0973 112.134C90.151 111.152 89.6823 109.911 89.6912 108.411C89.6823 107.143 90.026 106.045 90.7223 105.117C91.4276 104.179 92.4052 103.456 93.655 102.947C94.9138 102.429 96.3645 102.171 98.0072 102.171C100.418 102.171 102.315 102.684 103.698 103.711C105.091 104.737 105.953 106.125 106.283 107.875ZM126.979 107.875L122.56 108.357C122.435 107.911 122.216 107.491 121.904 107.099C121.6 106.706 121.19 106.389 120.672 106.148C120.154 105.907 119.52 105.786 118.77 105.786C117.761 105.786 116.913 106.005 116.226 106.442C115.547 106.88 115.213 107.447 115.222 108.143C115.213 108.741 115.431 109.228 115.878 109.603C116.333 109.978 117.083 110.286 118.128 110.527L121.636 111.277C123.582 111.696 125.028 112.361 125.975 113.272C126.93 114.182 127.412 115.374 127.421 116.847C127.412 118.142 127.033 119.285 126.283 120.276C125.542 121.258 124.511 122.025 123.189 122.579C121.868 123.132 120.35 123.409 118.636 123.409C116.119 123.409 114.092 122.882 112.557 121.829C111.021 120.767 110.106 119.289 109.812 117.396L114.539 116.941C114.753 117.87 115.208 118.57 115.905 119.044C116.601 119.517 117.507 119.753 118.623 119.753C119.775 119.753 120.699 119.517 121.395 119.044C122.1 118.57 122.453 117.986 122.453 117.289C122.453 116.7 122.225 116.213 121.77 115.83C121.324 115.446 120.627 115.151 119.681 114.946L116.172 114.209C114.199 113.799 112.74 113.107 111.793 112.134C110.847 111.152 110.378 109.911 110.387 108.411C110.378 107.143 110.722 106.045 111.419 105.117C112.124 104.179 113.101 103.456 114.351 102.947C115.61 102.429 117.061 102.171 118.703 102.171C121.114 102.171 123.011 102.684 124.395 103.711C125.787 104.737 126.649 106.125 126.979 107.875ZM161.957 123.369C160.341 123.369 158.895 122.954 157.618 122.124C156.342 121.293 155.333 120.088 154.592 118.508C153.851 116.928 153.48 115.008 153.48 112.75C153.48 110.464 153.855 108.536 154.605 106.965C155.364 105.384 156.386 104.193 157.672 103.389C158.957 102.577 160.39 102.171 161.97 102.171C163.176 102.171 164.167 102.376 164.943 102.787C165.72 103.188 166.336 103.675 166.791 104.246C167.247 104.809 167.599 105.34 167.849 105.84H168.05V95.5821H172.911V123.007H168.144V119.767H167.849C167.599 120.267 167.238 120.798 166.765 121.36C166.291 121.914 165.666 122.387 164.89 122.78C164.113 123.172 163.135 123.369 161.957 123.369ZM163.31 119.392C164.336 119.392 165.211 119.115 165.934 118.561C166.657 117.999 167.206 117.218 167.581 116.218C167.956 115.218 168.144 114.053 168.144 112.723C168.144 111.393 167.956 110.237 167.581 109.255C167.215 108.272 166.671 107.509 165.948 106.965C165.233 106.42 164.354 106.148 163.31 106.148C162.229 106.148 161.328 106.429 160.605 106.991C159.881 107.554 159.337 108.331 158.971 109.321C158.605 110.312 158.422 111.446 158.422 112.723C158.422 114.008 158.605 115.156 158.971 116.164C159.346 117.164 159.895 117.954 160.618 118.535C161.35 119.106 162.247 119.392 163.31 119.392Z" fill="#F7F7F7"/>
<path d="M131.633 123.007V95.5821H149.47V99.7467H136.601V107.192H148.546V111.357H136.601V118.843H149.577V123.007H131.633Z" fill="url(#paint3_linear_7219_2046)"/>
<path d="M4.10912 140.48V134.027H8.00361V134.721H4.89054V136.901H7.80195V137.594H4.89054V139.787H8.05402V140.48H4.10912ZM12.6133 142.295V139.737H12.5503C12.4957 139.825 12.418 139.936 12.3172 140.071C12.2163 140.203 12.0724 140.322 11.8855 140.427C11.6985 140.53 11.4496 140.581 11.1387 140.581C10.7354 140.581 10.3794 140.479 10.0706 140.276C9.7618 140.07 9.52023 139.78 9.34588 139.406C9.17153 139.03 9.08436 138.586 9.08436 138.073C9.08436 137.565 9.17153 137.124 9.34588 136.75C9.52023 136.376 9.76285 136.087 10.0737 135.883C10.3846 135.68 10.7438 135.578 11.1513 135.578C11.4664 135.578 11.7153 135.63 11.8981 135.735C12.0829 135.838 12.2237 135.956 12.3203 136.088C12.419 136.218 12.4957 136.326 12.5503 136.41H12.6386V135.641H13.357V142.295H12.6133ZM11.2396 139.913C11.5378 139.913 11.7899 139.836 11.9958 139.68C12.2016 139.523 12.3581 139.305 12.4653 139.028C12.5724 138.749 12.6259 138.426 12.6259 138.061C12.6259 137.699 12.5734 137.383 12.4684 137.112C12.3634 136.839 12.2079 136.627 12.0021 136.476C11.7962 136.322 11.542 136.246 11.2396 136.246C10.9245 136.246 10.6619 136.327 10.4518 136.488C10.2439 136.648 10.0874 136.865 9.98236 137.141C9.87943 137.414 9.82797 137.72 9.82797 138.061C9.82797 138.405 9.88048 138.718 9.98551 139C10.0926 139.279 10.2502 139.502 10.4581 139.668C10.6682 139.831 10.9287 139.913 11.2396 139.913ZM17.7682 138.502V135.641H18.5118V140.48H17.7682V139.661H17.7178C17.6043 139.907 17.4279 140.116 17.1884 140.288C16.949 140.458 16.6465 140.543 16.281 140.543C15.9785 140.543 15.7096 140.477 15.4743 140.345C15.2391 140.211 15.0542 140.009 14.9198 139.74C14.7854 139.469 14.7181 139.128 14.7181 138.716V135.641H15.4617V138.666C15.4617 139.018 15.5605 139.3 15.7579 139.51C15.9575 139.72 16.2117 139.825 16.5204 139.825C16.7053 139.825 16.8933 139.778 17.0844 139.683C17.2777 139.589 17.4394 139.444 17.5697 139.248C17.702 139.053 17.7682 138.804 17.7682 138.502ZM21.298 140.594C20.9913 140.594 20.7129 140.536 20.463 140.421C20.213 140.303 20.0145 140.134 19.8675 139.913C19.7204 139.691 19.6469 139.422 19.6469 139.107C19.6469 138.829 19.7015 138.605 19.8107 138.432C19.92 138.258 20.066 138.122 20.2487 138.023C20.4315 137.924 20.6331 137.851 20.8537 137.802C21.0763 137.752 21.3001 137.712 21.5248 137.682C21.8189 137.645 22.0573 137.616 22.2401 137.597C22.4249 137.576 22.5594 137.542 22.6434 137.493C22.7295 137.445 22.7726 137.361 22.7726 137.241V137.216C22.7726 136.905 22.6875 136.664 22.5174 136.491C22.3493 136.319 22.0941 136.233 21.7517 136.233C21.3967 136.233 21.1184 136.311 20.9167 136.466C20.715 136.622 20.5733 136.788 20.4913 136.964L19.7855 136.712C19.9116 136.418 20.0796 136.189 20.2897 136.025C20.5018 135.859 20.7329 135.744 20.9829 135.679C21.2349 135.611 21.4828 135.578 21.7265 135.578C21.8819 135.578 22.0605 135.597 22.2621 135.634C22.4659 135.67 22.6623 135.745 22.8513 135.858C23.0425 135.972 23.2011 136.143 23.3271 136.372C23.4532 136.601 23.5162 136.907 23.5162 137.292V140.48H22.7726V139.825H22.7348C22.6843 139.93 22.6003 140.042 22.4827 140.162C22.3651 140.282 22.2086 140.384 22.0132 140.468C21.8179 140.552 21.5794 140.594 21.298 140.594ZM21.4114 139.926C21.7055 139.926 21.9533 139.868 22.155 139.753C22.3588 139.637 22.5121 139.488 22.615 139.305C22.7201 139.122 22.7726 138.93 22.7726 138.729V138.048C22.7411 138.086 22.6717 138.12 22.5646 138.152C22.4596 138.181 22.3378 138.208 22.1991 138.231C22.0626 138.252 21.9292 138.271 21.799 138.287C21.6708 138.302 21.5668 138.315 21.487 138.325C21.2938 138.35 21.1131 138.391 20.9451 138.448C20.7791 138.503 20.6447 138.586 20.5417 138.697C20.4409 138.806 20.3905 138.955 20.3905 139.144C20.3905 139.403 20.4861 139.598 20.6772 139.731C20.8705 139.861 21.1152 139.926 21.4114 139.926ZM25.617 134.027V140.48H24.8734V134.027H25.617ZM30.8987 140.594C30.592 140.594 30.3137 140.536 30.0637 140.421C29.8137 140.303 29.6152 140.134 29.4682 139.913C29.3212 139.691 29.2476 139.422 29.2476 139.107C29.2476 138.829 29.3023 138.605 29.4115 138.432C29.5207 138.258 29.6667 138.122 29.8495 138.023C30.0322 137.924 30.2339 137.851 30.4544 137.802C30.6771 137.752 30.9008 137.712 31.1256 137.682C31.4196 137.645 31.6581 137.616 31.8408 137.597C32.0257 137.576 32.1601 137.542 32.2441 137.493C32.3302 137.445 32.3733 137.361 32.3733 137.241V137.216C32.3733 136.905 32.2882 136.664 32.1181 136.491C31.95 136.319 31.6948 136.233 31.3524 136.233C30.9974 136.233 30.7191 136.311 30.5174 136.466C30.3158 136.622 30.174 136.788 30.0921 136.964L29.3863 136.712C29.5123 136.418 29.6804 136.189 29.8904 136.025C30.1026 135.859 30.3336 135.744 30.5836 135.679C30.8357 135.611 31.0835 135.578 31.3272 135.578C31.4827 135.578 31.6612 135.597 31.8629 135.634C32.0666 135.67 32.263 135.745 32.4521 135.858C32.6432 135.972 32.8018 136.143 32.9279 136.372C33.0539 136.601 33.1169 136.907 33.1169 137.292V140.48H32.3733V139.825H32.3355C32.2851 139.93 32.2011 140.042 32.0834 140.162C31.9658 140.282 31.8093 140.384 31.6139 140.468C31.4186 140.552 31.1802 140.594 30.8987 140.594ZM31.0121 139.926C31.3062 139.926 31.5541 139.868 31.7557 139.753C31.9595 139.637 32.1128 139.488 32.2158 139.305C32.3208 139.122 32.3733 138.93 32.3733 138.729V138.048C32.3418 138.086 32.2725 138.12 32.1654 138.152C32.0603 138.181 31.9385 138.208 31.7998 138.231C31.6633 138.252 31.5299 138.271 31.3997 138.287C31.2716 138.302 31.1676 138.315 31.0878 138.325C30.8945 138.35 30.7138 138.391 30.5458 138.448C30.3799 138.503 30.2454 138.586 30.1425 138.697C30.0417 138.806 29.9912 138.955 29.9912 139.144C29.9912 139.403 30.0868 139.598 30.278 139.731C30.4712 139.861 30.7159 139.926 31.0121 139.926ZM36.4403 140.581C35.9866 140.581 35.5959 140.474 35.2682 140.26C34.9405 140.046 34.6884 139.751 34.512 139.375C34.3355 138.999 34.2473 138.569 34.2473 138.086C34.2473 137.594 34.3376 137.16 34.5183 136.784C34.701 136.406 34.9552 136.111 35.2808 135.899C35.6085 135.685 35.9908 135.578 36.4277 135.578C36.768 135.578 37.0747 135.641 37.3478 135.767C37.6208 135.893 37.8446 136.069 38.0189 136.296C38.1933 136.523 38.3014 136.788 38.3434 137.09H37.5998C37.5431 136.87 37.4171 136.674 37.2217 136.504C37.0285 136.332 36.768 136.246 36.4403 136.246C36.1504 136.246 35.8963 136.321 35.6778 136.473C35.4614 136.622 35.2923 136.833 35.1705 137.106C35.0508 137.377 34.9909 137.695 34.9909 138.061C34.9909 138.434 35.0497 138.76 35.1674 139.037C35.2871 139.315 35.4551 139.53 35.6715 139.683C35.89 139.837 36.1462 139.913 36.4403 139.913C36.6336 139.913 36.809 139.88 36.9665 139.812C37.1241 139.745 37.2574 139.649 37.3667 139.523C37.4759 139.397 37.5536 139.245 37.5998 139.069H38.3434C38.3014 139.355 38.1975 139.612 38.0315 139.841C37.8677 140.068 37.6502 140.248 37.3793 140.383C37.1104 140.515 36.7974 140.581 36.4403 140.581ZM41.3966 140.581C40.9429 140.581 40.5522 140.474 40.2245 140.26C39.8968 140.046 39.6448 139.751 39.4683 139.375C39.2919 138.999 39.2036 138.569 39.2036 138.086C39.2036 137.594 39.294 137.16 39.4746 136.784C39.6574 136.406 39.9115 136.111 40.2371 135.899C40.5648 135.685 40.9471 135.578 41.384 135.578C41.7243 135.578 42.031 135.641 42.3041 135.767C42.5772 135.893 42.8009 136.069 42.9752 136.296C43.1496 136.523 43.2578 136.788 43.2998 137.09H42.5562C42.4995 136.87 42.3734 136.674 42.1781 136.504C41.9848 136.332 41.7243 136.246 41.3966 136.246C41.1068 136.246 40.8526 136.321 40.6341 136.473C40.4178 136.622 40.2487 136.833 40.1268 137.106C40.0071 137.377 39.9472 137.695 39.9472 138.061C39.9472 138.434 40.0061 138.76 40.1237 139.037C40.2434 139.315 40.4115 139.53 40.6278 139.683C40.8463 139.837 41.1026 139.913 41.3966 139.913C41.5899 139.913 41.7653 139.88 41.9228 139.812C42.0804 139.745 42.2138 139.649 42.323 139.523C42.4322 139.397 42.51 139.245 42.5562 139.069H43.2998C43.2578 139.355 43.1538 139.612 42.9878 139.841C42.824 140.068 42.6066 140.248 42.3356 140.383C42.0667 140.515 41.7537 140.581 41.3966 140.581ZM46.416 140.581C45.9497 140.581 45.5474 140.478 45.2092 140.273C44.8731 140.065 44.6137 139.775 44.4309 139.403C44.2503 139.029 44.16 138.594 44.16 138.098C44.16 137.603 44.2503 137.166 44.4309 136.788C44.6137 136.407 44.8679 136.111 45.1935 135.899C45.5211 135.685 45.9035 135.578 46.3404 135.578C46.5924 135.578 46.8414 135.62 47.0871 135.704C47.3329 135.788 47.5566 135.924 47.7583 136.113C47.9599 136.3 48.1206 136.548 48.2404 136.857C48.3601 137.166 48.42 137.546 48.42 137.998V138.313H44.6893V137.67H47.6637C47.6637 137.397 47.6091 137.153 47.4999 136.939C47.3928 136.725 47.2394 136.556 47.0399 136.432C46.8424 136.308 46.6093 136.246 46.3404 136.246C46.0442 136.246 45.7879 136.319 45.5716 136.466C45.3573 136.611 45.1924 136.8 45.0769 137.033C44.9613 137.267 44.9036 137.517 44.9036 137.783V138.212C44.9036 138.577 44.9666 138.887 45.0926 139.141C45.2208 139.393 45.3983 139.586 45.6251 139.718C45.852 139.848 46.1156 139.913 46.416 139.913C46.6114 139.913 46.7878 139.886 46.9453 139.831C47.105 139.775 47.2426 139.691 47.3581 139.579C47.4736 139.466 47.5629 139.325 47.6259 139.157L48.3443 139.359C48.2687 139.602 48.1416 139.817 47.9631 140.002C47.7845 140.184 47.564 140.327 47.3014 140.43C47.0388 140.531 46.7437 140.581 46.416 140.581ZM52.9793 136.725L52.3113 136.914C52.2693 136.802 52.2073 136.694 52.1254 136.589C52.0456 136.482 51.9363 136.394 51.7977 136.324C51.6591 136.255 51.4816 136.22 51.2652 136.22C50.969 136.22 50.7222 136.289 50.5247 136.425C50.3294 136.56 50.2317 136.731 50.2317 136.939C50.2317 137.124 50.2989 137.27 50.4334 137.377C50.5678 137.484 50.7779 137.573 51.0636 137.645L51.782 137.821C52.2147 137.926 52.5371 138.087 52.7493 138.303C52.9614 138.517 53.0675 138.794 53.0675 139.132C53.0675 139.409 52.9877 139.657 52.828 139.875C52.6705 140.094 52.4499 140.266 52.1664 140.392C51.8828 140.518 51.553 140.581 51.177 140.581C50.6833 140.581 50.2748 140.474 49.9513 140.26C49.6278 140.046 49.423 139.733 49.3369 139.321L50.0427 139.144C50.1099 139.405 50.237 139.6 50.4239 139.731C50.613 139.861 50.8598 139.926 51.1644 139.926C51.511 139.926 51.7862 139.852 51.9899 139.705C52.1958 139.556 52.2987 139.378 52.2987 139.17C52.2987 139.002 52.2399 138.861 52.1222 138.747C52.0046 138.632 51.824 138.546 51.5803 138.489L50.7737 138.3C50.3304 138.195 50.0049 138.032 49.7969 137.812C49.591 137.589 49.4881 137.311 49.4881 136.977C49.4881 136.704 49.5648 136.462 49.7181 136.252C49.8736 136.042 50.0847 135.877 50.3515 135.757C50.6203 135.638 50.9249 135.578 51.2652 135.578C51.7441 135.578 52.1201 135.683 52.3932 135.893C52.6684 136.103 52.8638 136.38 52.9793 136.725ZM57.615 136.725L56.947 136.914C56.905 136.802 56.8431 136.694 56.7611 136.589C56.6813 136.482 56.5721 136.394 56.4334 136.324C56.2948 136.255 56.1173 136.22 55.9009 136.22C55.6048 136.22 55.3579 136.289 55.1605 136.425C54.9651 136.56 54.8675 136.731 54.8675 136.939C54.8675 137.124 54.9347 137.27 55.0691 137.377C55.2035 137.484 55.4136 137.573 55.6993 137.645L56.4177 137.821C56.8504 137.926 57.1728 138.087 57.385 138.303C57.5972 138.517 57.7032 138.794 57.7032 139.132C57.7032 139.409 57.6234 139.657 57.4638 139.875C57.3062 140.094 57.0857 140.266 56.8021 140.392C56.5185 140.518 56.1887 140.581 55.8127 140.581C55.3191 140.581 54.9105 140.474 54.587 140.26C54.2635 140.046 54.0587 139.733 53.9726 139.321L54.6784 139.144C54.7456 139.405 54.8727 139.6 55.0597 139.731C55.2487 139.861 55.4955 139.926 55.8001 139.926C56.1467 139.926 56.4219 139.852 56.6256 139.705C56.8315 139.556 56.9344 139.378 56.9344 139.17C56.9344 139.002 56.8756 138.861 56.758 138.747C56.6403 138.632 56.4597 138.546 56.216 138.489L55.4094 138.3C54.9662 138.195 54.6406 138.032 54.4326 137.812C54.2268 137.589 54.1238 137.311 54.1238 136.977C54.1238 136.704 54.2005 136.462 54.3539 136.252C54.5093 136.042 54.7204 135.877 54.9872 135.757C55.2561 135.638 55.5606 135.578 55.9009 135.578C56.3799 135.578 56.7559 135.683 57.029 135.893C57.3041 136.103 57.4995 136.38 57.615 136.725ZM63.4229 135.641V136.271H60.9148V135.641H63.4229ZM61.6458 134.481H62.3894V139.094C62.3894 139.304 62.4199 139.462 62.4808 139.567C62.5438 139.67 62.6236 139.739 62.7202 139.775C62.819 139.808 62.9229 139.825 63.0322 139.825C63.1141 139.825 63.1813 139.821 63.2338 139.812C63.2863 139.802 63.3284 139.794 63.3599 139.787L63.5111 140.455C63.4607 140.474 63.3903 140.493 63.3 140.512C63.2097 140.533 63.0952 140.543 62.9566 140.543C62.7465 140.543 62.5406 140.498 62.339 140.408C62.1394 140.318 61.9735 140.18 61.8411 139.995C61.7109 139.81 61.6458 139.577 61.6458 139.296V134.481ZM66.4556 140.581C66.0187 140.581 65.6353 140.477 65.3055 140.269C64.9778 140.061 64.7216 139.77 64.5367 139.397C64.354 139.023 64.2626 138.586 64.2626 138.086C64.2626 137.582 64.354 137.142 64.5367 136.766C64.7216 136.39 64.9778 136.098 65.3055 135.89C65.6353 135.682 66.0187 135.578 66.4556 135.578C66.8925 135.578 67.2748 135.682 67.6025 135.89C67.9323 136.098 68.1886 136.39 68.3713 136.766C68.5562 137.142 68.6486 137.582 68.6486 138.086C68.6486 138.586 68.5562 139.023 68.3713 139.397C68.1886 139.77 67.9323 140.061 67.6025 140.269C67.2748 140.477 66.8925 140.581 66.4556 140.581ZM66.4556 139.913C66.7875 139.913 67.0606 139.828 67.2748 139.658C67.4891 139.488 67.6477 139.264 67.7506 138.987C67.8535 138.71 67.905 138.409 67.905 138.086C67.905 137.762 67.8535 137.461 67.7506 137.181C67.6477 136.902 67.4891 136.676 67.2748 136.504C67.0606 136.332 66.7875 136.246 66.4556 136.246C66.1237 136.246 65.8506 136.332 65.6364 136.504C65.4221 136.676 65.2635 136.902 65.1606 137.181C65.0577 137.461 65.0062 137.762 65.0062 138.086C65.0062 138.409 65.0577 138.71 65.1606 138.987C65.2635 139.264 65.4221 139.488 65.6364 139.658C65.8506 139.828 66.1237 139.913 66.4556 139.913ZM74.3084 140.581C73.8421 140.581 73.4398 140.478 73.1016 140.273C72.7655 140.065 72.5061 139.775 72.3233 139.403C72.1427 139.029 72.0524 138.594 72.0524 138.098C72.0524 137.603 72.1427 137.166 72.3233 136.788C72.5061 136.407 72.7603 136.111 73.0858 135.899C73.4135 135.685 73.7958 135.578 74.2328 135.578C74.4848 135.578 74.7338 135.62 74.9795 135.704C75.2253 135.788 75.449 135.924 75.6507 136.113C75.8523 136.3 76.013 136.548 76.1328 136.857C76.2525 137.166 76.3124 137.546 76.3124 137.998V138.313H72.5817V137.67H75.5561C75.5561 137.397 75.5015 137.153 75.3923 136.939C75.2852 136.725 75.1318 136.556 74.9323 136.432C74.7348 136.308 74.5016 136.246 74.2328 136.246C73.9366 136.246 73.6803 136.319 73.464 136.466C73.2497 136.611 73.0848 136.8 72.9693 137.033C72.8537 137.267 72.796 137.517 72.796 137.783V138.212C72.796 138.577 72.859 138.887 72.985 139.141C73.1132 139.393 73.2907 139.586 73.5175 139.718C73.7444 139.848 74.008 139.913 74.3084 139.913C74.5037 139.913 74.6802 139.886 74.8377 139.831C74.9974 139.775 75.135 139.691 75.2505 139.579C75.366 139.466 75.4553 139.325 75.5183 139.157L76.2367 139.359C76.1611 139.602 76.034 139.817 75.8555 140.002C75.6769 140.184 75.4564 140.327 75.1938 140.43C74.9312 140.531 74.6361 140.581 74.3084 140.581ZM79.271 140.581C78.8677 140.581 78.5117 140.479 78.2029 140.276C77.8941 140.07 77.6525 139.78 77.4782 139.406C77.3038 139.03 77.2167 138.586 77.2167 138.073C77.2167 137.565 77.3038 137.124 77.4782 136.75C77.6525 136.376 77.8951 136.087 78.206 135.883C78.5169 135.68 78.8761 135.578 79.2836 135.578C79.5987 135.578 79.8476 135.63 80.0304 135.735C80.2152 135.838 80.356 135.956 80.4526 136.088C80.5513 136.218 80.628 136.326 80.6826 136.41H80.7456V134.027H81.4892V140.48H80.7708V139.737H80.6826C80.628 139.825 80.5503 139.936 80.4495 140.071C80.3486 140.203 80.2047 140.322 80.0178 140.427C79.8308 140.53 79.5819 140.581 79.271 140.581ZM79.3719 139.913C79.6701 139.913 79.9222 139.836 80.1281 139.68C80.3339 139.523 80.4904 139.305 80.5975 139.028C80.7047 138.749 80.7582 138.426 80.7582 138.061C80.7582 137.699 80.7057 137.383 80.6007 137.112C80.4957 136.839 80.3402 136.627 80.1344 136.476C79.9285 136.322 79.6743 136.246 79.3719 136.246C79.0568 136.246 78.7942 136.327 78.5841 136.488C78.3762 136.648 78.2197 136.865 78.1147 137.141C78.0117 137.414 77.9603 137.72 77.9603 138.061C77.9603 138.405 78.0128 138.718 78.1178 139C78.2249 139.279 78.3825 139.502 78.5904 139.668C78.8005 139.831 79.061 139.913 79.3719 139.913ZM86.0045 138.502V135.641H86.7481V140.48H86.0045V139.661H85.954C85.8406 139.907 85.6642 140.116 85.4247 140.288C85.1852 140.458 84.8827 140.543 84.5172 140.543C84.2148 140.543 83.9459 140.477 83.7106 140.345C83.4754 140.211 83.2905 140.009 83.1561 139.74C83.0216 139.469 82.9544 139.128 82.9544 138.716V135.641H83.698V138.666C83.698 139.018 83.7967 139.3 83.9942 139.51C84.1938 139.72 84.4479 139.825 84.7567 139.825C84.9416 139.825 85.1296 139.778 85.3207 139.683C85.514 139.589 85.6757 139.444 85.806 139.248C85.9383 139.053 86.0045 138.804 86.0045 138.502ZM90.0762 140.581C89.6225 140.581 89.2318 140.474 88.9041 140.26C88.5764 140.046 88.3243 139.751 88.1479 139.375C87.9714 138.999 87.8832 138.569 87.8832 138.086C87.8832 137.594 87.9735 137.16 88.1542 136.784C88.3369 136.406 88.5911 136.111 88.9167 135.899C89.2444 135.685 89.6267 135.578 90.0636 135.578C90.4039 135.578 90.7106 135.641 90.9836 135.767C91.2567 135.893 91.4804 136.069 91.6548 136.296C91.8291 136.523 91.9373 136.788 91.9793 137.09H91.2357C91.179 136.87 91.053 136.674 90.8576 136.504C90.6644 136.332 90.4039 136.246 90.0762 136.246C89.7863 136.246 89.5321 136.321 89.3137 136.473C89.0973 136.622 88.9282 136.833 88.8064 137.106C88.6867 137.377 88.6268 137.695 88.6268 138.061C88.6268 138.434 88.6856 138.76 88.8032 139.037C88.923 139.315 89.091 139.53 89.3074 139.683C89.5258 139.837 89.7821 139.913 90.0762 139.913C90.2694 139.913 90.4448 139.88 90.6024 139.812C90.7599 139.745 90.8933 139.649 91.0026 139.523C91.1118 139.397 91.1895 139.245 91.2357 139.069H91.9793C91.9373 139.355 91.8333 139.612 91.6674 139.841C91.5035 140.068 91.2861 140.248 91.0152 140.383C90.7463 140.515 90.4333 140.581 90.0762 140.581ZM94.4906 140.594C94.1839 140.594 93.9056 140.536 93.6556 140.421C93.4056 140.303 93.2071 140.134 93.0601 139.913C92.913 139.691 92.8395 139.422 92.8395 139.107C92.8395 138.829 92.8941 138.605 93.0034 138.432C93.1126 138.258 93.2586 138.122 93.4413 138.023C93.6241 137.924 93.8257 137.851 94.0463 137.802C94.269 137.752 94.4927 137.712 94.7174 137.682C95.0115 137.645 95.2499 137.616 95.4327 137.597C95.6175 137.576 95.752 137.542 95.836 137.493C95.9221 137.445 95.9652 137.361 95.9652 137.241V137.216C95.9652 136.905 95.8801 136.664 95.71 136.491C95.5419 136.319 95.2867 136.233 94.9443 136.233C94.5893 136.233 94.311 136.311 94.1093 136.466C93.9077 136.622 93.7659 136.788 93.684 136.964L92.9782 136.712C93.1042 136.418 93.2722 136.189 93.4823 136.025C93.6945 135.859 93.9255 135.744 94.1755 135.679C94.4276 135.611 94.6754 135.578 94.9191 135.578C95.0745 135.578 95.2531 135.597 95.4547 135.634C95.6585 135.67 95.8549 135.745 96.044 135.858C96.2351 135.972 96.3937 136.143 96.5197 136.372C96.6458 136.601 96.7088 136.907 96.7088 137.292V140.48H95.9652V139.825H95.9274C95.877 139.93 95.7929 140.042 95.6753 140.162C95.5577 140.282 95.4012 140.384 95.2058 140.468C95.0105 140.552 94.7721 140.594 94.4906 140.594ZM94.604 139.926C94.8981 139.926 95.146 139.868 95.3476 139.753C95.5514 139.637 95.7047 139.488 95.8076 139.305C95.9127 139.122 95.9652 138.93 95.9652 138.729V138.048C95.9337 138.086 95.8644 138.12 95.7572 138.152C95.6522 138.181 95.5304 138.208 95.3917 138.231C95.2552 138.252 95.1218 138.271 94.9916 138.287C94.8634 138.302 94.7595 138.315 94.6796 138.325C94.4864 138.35 94.3057 138.391 94.1377 138.448C93.9717 138.503 93.8373 138.586 93.7344 138.697C93.6335 138.806 93.5831 138.955 93.5831 139.144C93.5831 139.403 93.6787 139.598 93.8699 139.731C94.0631 139.861 94.3078 139.926 94.604 139.926ZM100.171 135.641V136.271H97.6627V135.641H100.171ZM98.3937 134.481H99.1373V139.094C99.1373 139.304 99.1678 139.462 99.2287 139.567C99.2917 139.67 99.3716 139.739 99.4682 139.775C99.5669 139.808 99.6709 139.825 99.7801 139.825C99.862 139.825 99.9293 139.821 99.9818 139.812C100.034 139.802 100.076 139.794 100.108 139.787L100.259 140.455C100.209 140.474 100.138 140.493 100.048 140.512C99.9576 140.533 99.8431 140.543 99.7045 140.543C99.4944 140.543 99.2886 140.498 99.0869 140.408C98.8874 140.318 98.7214 140.18 98.5891 139.995C98.4588 139.81 98.3937 139.577 98.3937 139.296V134.481ZM101.289 140.48V135.641H102.033V140.48H101.289ZM101.667 134.834C101.523 134.834 101.398 134.785 101.293 134.686C101.19 134.587 101.138 134.469 101.138 134.33C101.138 134.191 101.19 134.073 101.293 133.974C101.398 133.875 101.523 133.826 101.667 133.826C101.812 133.826 101.936 133.875 102.039 133.974C102.144 134.073 102.197 134.191 102.197 134.33C102.197 134.469 102.144 134.587 102.039 134.686C101.936 134.785 101.812 134.834 101.667 134.834ZM105.361 140.581C104.924 140.581 104.541 140.477 104.211 140.269C103.883 140.061 103.627 139.77 103.442 139.397C103.259 139.023 103.168 138.586 103.168 138.086C103.168 137.582 103.259 137.142 103.442 136.766C103.627 136.39 103.883 136.098 104.211 135.89C104.541 135.682 104.924 135.578 105.361 135.578C105.798 135.578 106.18 135.682 106.508 135.89C106.838 136.098 107.094 136.39 107.277 136.766C107.462 137.142 107.554 137.582 107.554 138.086C107.554 138.586 107.462 139.023 107.277 139.397C107.094 139.77 106.838 140.061 106.508 140.269C106.18 140.477 105.798 140.581 105.361 140.581ZM105.361 139.913C105.693 139.913 105.966 139.828 106.18 139.658C106.395 139.488 106.553 139.264 106.656 138.987C106.759 138.71 106.811 138.409 106.811 138.086C106.811 137.762 106.759 137.461 106.656 137.181C106.553 136.902 106.395 136.676 106.18 136.504C105.966 136.332 105.693 136.246 105.361 136.246C105.029 136.246 104.756 136.332 104.542 136.504C104.328 136.676 104.169 136.902 104.066 137.181C103.963 137.461 103.912 137.762 103.912 138.086C103.912 138.409 103.963 138.71 104.066 138.987C104.169 139.264 104.328 139.488 104.542 139.658C104.756 139.828 105.029 139.913 105.361 139.913ZM109.433 137.569V140.48H108.689V135.641H109.408V136.397H109.471C109.584 136.151 109.756 135.954 109.987 135.805C110.218 135.653 110.517 135.578 110.882 135.578C111.21 135.578 111.497 135.645 111.742 135.779C111.988 135.912 112.179 136.113 112.316 136.384C112.452 136.653 112.521 136.993 112.521 137.405V140.48H111.777V137.456C111.777 137.075 111.678 136.779 111.481 136.567C111.283 136.353 111.012 136.246 110.668 136.246C110.431 136.246 110.218 136.297 110.032 136.4C109.847 136.503 109.701 136.653 109.594 136.851C109.486 137.048 109.433 137.288 109.433 137.569ZM118.53 135.641V136.271H115.921V135.641H118.53ZM116.703 140.48V134.973C116.703 134.695 116.768 134.464 116.898 134.28C117.028 134.095 117.197 133.956 117.405 133.864C117.613 133.771 117.833 133.725 118.064 133.725C118.247 133.725 118.396 133.74 118.511 133.769C118.627 133.798 118.713 133.826 118.77 133.851L118.555 134.494C118.518 134.481 118.465 134.465 118.398 134.447C118.333 134.428 118.247 134.418 118.14 134.418C117.894 134.418 117.716 134.48 117.607 134.604C117.5 134.728 117.446 134.91 117.446 135.149V140.48H116.703ZM121.339 140.581C120.902 140.581 120.519 140.477 120.189 140.269C119.861 140.061 119.605 139.77 119.42 139.397C119.238 139.023 119.146 138.586 119.146 138.086C119.146 137.582 119.238 137.142 119.42 136.766C119.605 136.39 119.861 136.098 120.189 135.89C120.519 135.682 120.902 135.578 121.339 135.578C121.776 135.578 122.158 135.682 122.486 135.89C122.816 136.098 123.072 136.39 123.255 136.766C123.44 137.142 123.532 137.582 123.532 138.086C123.532 138.586 123.44 139.023 123.255 139.397C123.072 139.77 122.816 140.061 122.486 140.269C122.158 140.477 121.776 140.581 121.339 140.581ZM121.339 139.913C121.671 139.913 121.944 139.828 122.158 139.658C122.373 139.488 122.531 139.264 122.634 138.987C122.737 138.71 122.789 138.409 122.789 138.086C122.789 137.762 122.737 137.461 122.634 137.181C122.531 136.902 122.373 136.676 122.158 136.504C121.944 136.332 121.671 136.246 121.339 136.246C121.007 136.246 120.734 136.332 120.52 136.504C120.306 136.676 120.147 136.902 120.044 137.181C119.941 137.461 119.89 137.762 119.89 138.086C119.89 138.409 119.941 138.71 120.044 138.987C120.147 139.264 120.306 139.488 120.52 139.658C120.734 139.828 121.007 139.913 121.339 139.913ZM124.667 140.48V135.641H125.386V136.372H125.436C125.524 136.132 125.684 135.938 125.915 135.789C126.146 135.64 126.407 135.565 126.697 135.565C126.751 135.565 126.819 135.566 126.901 135.568C126.983 135.57 127.045 135.573 127.087 135.578V136.334C127.062 136.328 127.004 136.318 126.914 136.306C126.826 136.291 126.732 136.283 126.634 136.283C126.398 136.283 126.188 136.333 126.003 136.432C125.821 136.528 125.676 136.663 125.569 136.835C125.463 137.005 125.411 137.199 125.411 137.418V140.48H124.667ZM132.493 140.581C132.027 140.581 131.625 140.478 131.287 140.273C130.95 140.065 130.691 139.775 130.508 139.403C130.328 139.029 130.237 138.594 130.237 138.098C130.237 137.603 130.328 137.166 130.508 136.788C130.691 136.407 130.945 136.111 131.271 135.899C131.598 135.685 131.981 135.578 132.418 135.578C132.67 135.578 132.919 135.62 133.164 135.704C133.41 135.788 133.634 135.924 133.836 136.113C134.037 136.3 134.198 136.548 134.318 136.857C134.437 137.166 134.497 137.546 134.497 137.998V138.313H130.767V137.67H133.741C133.741 137.397 133.686 137.153 133.577 136.939C133.47 136.725 133.317 136.556 133.117 136.432C132.92 136.308 132.687 136.246 132.418 136.246C132.122 136.246 131.865 136.319 131.649 136.466C131.435 136.611 131.27 136.8 131.154 137.033C131.039 137.267 130.981 137.517 130.981 137.783V138.212C130.981 138.577 131.044 138.887 131.17 139.141C131.298 139.393 131.476 139.586 131.702 139.718C131.929 139.848 132.193 139.913 132.493 139.913C132.689 139.913 132.865 139.886 133.023 139.831C133.182 139.775 133.32 139.691 133.435 139.579C133.551 139.466 133.64 139.325 133.703 139.157L134.422 139.359C134.346 139.602 134.219 139.817 134.04 140.002C133.862 140.184 133.641 140.327 133.379 140.43C133.116 140.531 132.821 140.581 132.493 140.581ZM139.439 135.641L137.649 140.48H136.893L135.103 135.641H135.91L137.246 139.497H137.296L138.632 135.641H139.439ZM142.276 140.581C141.81 140.581 141.407 140.478 141.069 140.273C140.733 140.065 140.474 139.775 140.291 139.403C140.11 139.029 140.02 138.594 140.02 138.098C140.02 137.603 140.11 137.166 140.291 136.788C140.474 136.407 140.728 136.111 141.054 135.899C141.381 135.685 141.764 135.578 142.2 135.578C142.453 135.578 142.701 135.62 142.947 135.704C143.193 135.788 143.417 135.924 143.618 136.113C143.82 136.3 143.981 136.548 144.1 136.857C144.22 137.166 144.28 137.546 144.28 137.998V138.313H140.549V137.67H143.524C143.524 137.397 143.469 137.153 143.36 136.939C143.253 136.725 143.099 136.556 142.9 136.432C142.702 136.308 142.469 136.246 142.2 136.246C141.904 136.246 141.648 136.319 141.432 136.466C141.217 136.611 141.052 136.8 140.937 137.033C140.821 137.267 140.764 137.517 140.764 137.783V138.212C140.764 138.577 140.827 138.887 140.953 139.141C141.081 139.393 141.258 139.586 141.485 139.718C141.712 139.848 141.976 139.913 142.276 139.913C142.471 139.913 142.648 139.886 142.805 139.831C142.965 139.775 143.103 139.691 143.218 139.579C143.334 139.466 143.423 139.325 143.486 139.157L144.204 139.359C144.129 139.602 144.002 139.817 143.823 140.002C143.645 140.184 143.424 140.327 143.161 140.43C142.899 140.531 142.604 140.581 142.276 140.581ZM145.411 140.48V135.641H146.13V136.372H146.18C146.268 136.132 146.428 135.938 146.659 135.789C146.89 135.64 147.15 135.565 147.44 135.565C147.495 135.565 147.563 135.566 147.645 135.568C147.727 135.57 147.789 135.573 147.831 135.578V136.334C147.806 136.328 147.748 136.318 147.658 136.306C147.57 136.291 147.476 136.283 147.377 136.283C147.142 136.283 146.932 136.333 146.747 136.432C146.564 136.528 146.419 136.663 146.312 136.835C146.207 137.005 146.155 137.199 146.155 137.418V140.48H145.411ZM149.339 142.295C149.213 142.295 149.1 142.285 149.002 142.264C148.903 142.245 148.835 142.226 148.797 142.207L148.986 141.552C149.167 141.598 149.326 141.615 149.465 141.602C149.603 141.59 149.726 141.528 149.833 141.416C149.943 141.307 150.042 141.13 150.133 140.884L150.271 140.506L148.482 135.641H149.288L150.624 139.497H150.675L152.011 135.641H152.817L150.763 141.186C150.671 141.436 150.556 141.643 150.42 141.807C150.283 141.973 150.124 142.096 149.944 142.176C149.765 142.255 149.564 142.295 149.339 142.295ZM155.592 140.581C155.155 140.581 154.771 140.477 154.442 140.269C154.114 140.061 153.858 139.77 153.673 139.397C153.49 139.023 153.399 138.586 153.399 138.086C153.399 137.582 153.49 137.142 153.673 136.766C153.858 136.39 154.114 136.098 154.442 135.89C154.771 135.682 155.155 135.578 155.592 135.578C156.029 135.578 156.411 135.682 156.739 135.89C157.068 136.098 157.325 136.39 157.507 136.766C157.692 137.142 157.785 137.582 157.785 138.086C157.785 138.586 157.692 139.023 157.507 139.397C157.325 139.77 157.068 140.061 156.739 140.269C156.411 140.477 156.029 140.581 155.592 140.581ZM155.592 139.913C155.924 139.913 156.197 139.828 156.411 139.658C156.625 139.488 156.784 139.264 156.887 138.987C156.99 138.71 157.041 138.409 157.041 138.086C157.041 137.762 156.99 137.461 156.887 137.181C156.784 136.902 156.625 136.676 156.411 136.504C156.197 136.332 155.924 136.246 155.592 136.246C155.26 136.246 154.987 136.332 154.772 136.504C154.558 136.676 154.4 136.902 154.297 137.181C154.194 137.461 154.142 137.762 154.142 138.086C154.142 138.409 154.194 138.71 154.297 138.987C154.4 139.264 154.558 139.488 154.772 139.658C154.987 139.828 155.26 139.913 155.592 139.913ZM159.663 137.569V140.48H158.92V135.641H159.638V136.397H159.701C159.815 136.151 159.987 135.954 160.218 135.805C160.449 135.653 160.747 135.578 161.113 135.578C161.441 135.578 161.727 135.645 161.973 135.779C162.219 135.912 162.41 136.113 162.546 136.384C162.683 136.653 162.751 136.993 162.751 137.405V140.48H162.008V137.456C162.008 137.075 161.909 136.779 161.711 136.567C161.514 136.353 161.243 136.246 160.899 136.246C160.661 136.246 160.449 136.297 160.262 136.4C160.077 136.503 159.931 136.653 159.824 136.851C159.717 137.048 159.663 137.288 159.663 137.569ZM166.139 140.581C165.673 140.581 165.271 140.478 164.932 140.273C164.596 140.065 164.337 139.775 164.154 139.403C163.974 139.029 163.883 138.594 163.883 138.098C163.883 137.603 163.974 137.166 164.154 136.788C164.337 136.407 164.591 136.111 164.917 135.899C165.244 135.685 165.627 135.578 166.064 135.578C166.316 135.578 166.565 135.62 166.81 135.704C167.056 135.788 167.28 135.924 167.482 136.113C167.683 136.3 167.844 136.548 167.964 136.857C168.083 137.166 168.143 137.546 168.143 137.998V138.313H164.413V137.67H167.387C167.387 137.397 167.332 137.153 167.223 136.939C167.116 136.725 166.963 136.556 166.763 136.432C166.566 136.308 166.333 136.246 166.064 136.246C165.767 136.246 165.511 136.319 165.295 136.466C165.081 136.611 164.916 136.8 164.8 137.033C164.685 137.267 164.627 137.517 164.627 137.783V138.212C164.627 138.577 164.69 138.887 164.816 139.141C164.944 139.393 165.122 139.586 165.348 139.718C165.575 139.848 165.839 139.913 166.139 139.913C166.335 139.913 166.511 139.886 166.669 139.831C166.828 139.775 166.966 139.691 167.081 139.579C167.197 139.466 167.286 139.325 167.349 139.157L168.068 139.359C167.992 139.602 167.865 139.817 167.686 140.002C167.508 140.184 167.287 140.327 167.025 140.43C166.762 140.531 166.467 140.581 166.139 140.581ZM169.816 140.531C169.661 140.531 169.528 140.475 169.416 140.364C169.305 140.253 169.249 140.119 169.249 139.964C169.249 139.808 169.305 139.675 169.416 139.564C169.528 139.452 169.661 139.397 169.816 139.397C169.972 139.397 170.105 139.452 170.216 139.564C170.328 139.675 170.383 139.808 170.383 139.964C170.383 140.067 170.357 140.161 170.305 140.247C170.254 140.333 170.186 140.403 170.1 140.455C170.016 140.506 169.921 140.531 169.816 140.531Z" fill="#C8D8FF"/>
<defs>
<linearGradient id="paint0_linear_7219_2046" x1="62.0578" y1="11.832" x2="62.0578" y2="62.5842" gradientUnits="userSpaceOnUse">
<stop stop-color="#4AA0F3"/>
<stop offset="1" stop-color="#377CF3"/>
</linearGradient>
<linearGradient id="paint1_linear_7219_2046" x1="80.4301" y1="60.6108" x2="80.4301" y2="64.7259" gradientUnits="userSpaceOnUse">
<stop stop-color="#4AA0F3"/>
<stop offset="1" stop-color="#377CF3"/>
</linearGradient>
<linearGradient id="paint2_linear_7219_2046" x1="59.6403" y1="5.41357" x2="59.6403" y2="10.9003" gradientUnits="userSpaceOnUse">
<stop stop-color="#4AA0F3"/>
<stop offset="1" stop-color="#377CF3"/>
</linearGradient>
<linearGradient id="paint3_linear_7219_2046" x1="117.185" y1="101.081" x2="161.612" y2="102.189" gradientUnits="userSpaceOnUse">
<stop stop-color="#5AC0F4"/>
<stop offset="1" stop-color="#2D69F2"/>
</linearGradient>
</defs>
</svg>
