<svg xmlns="http://www.w3.org/2000/svg" width="16" height="17" viewBox="0 0 16 17" fill="none">
  <g clip-path="url(#clip0_7305_2261)">
    <path d="M11.6864 10.6256C11.6864 11.2976 11.8776 11.5656 12.3776 11.5656C13.492 11.5656 14.2016 10.1456 14.2016 7.784C14.2016 4.1744 11.5712 2.4464 8.28721 2.4464C4.90881 2.4464 1.83601 4.712 1.83601 8.9936C1.83601 13.0832 4.524 15.3104 8.652 15.3104C10.0536 15.3104 10.9944 15.1568 12.4336 14.6768L12.7424 15.9624C11.3216 16.424 9.80321 16.5576 8.6328 16.5576C3.21841 16.5576 0.318405 13.5816 0.318405 8.9928C0.318405 4.3656 3.67921 1.2168 8.30641 1.2168C13.1256 1.2168 15.6784 4.0968 15.6784 7.6296C15.6784 10.6248 14.7384 12.9096 11.7816 12.9096C10.4368 12.9096 9.5544 12.372 9.4392 11.1808C9.09361 12.5056 8.17201 12.9096 6.92321 12.9096C5.25281 12.9096 3.85121 11.6224 3.85121 9.0312C3.85121 6.42 5.08081 4.8072 7.28881 4.8072C8.46 4.8072 9.1896 5.268 9.5144 5.9976L10.072 4.98H11.6848V10.6256H11.6864ZM9.3256 8.0912C9.3256 7.036 8.5376 6.5936 7.8848 6.5936C7.17441 6.5936 6.388 7.1688 6.388 8.8592C6.388 10.2032 6.9832 10.952 7.8848 10.952C8.5184 10.952 9.3256 10.5488 9.3256 9.4352V8.0912Z" fill="white"/>
  </g>
  <defs>
    <clipPath id="clip0_7305_2261">
      <rect width="16" height="16" fill="white" transform="translate(0 0.888184)"/>
    </clipPath>
  </defs>
</svg>