<svg width="16" height="17" viewBox="0 0 16 17" fill="none" xmlns="http://www.w3.org/2000/svg">
<g clip-path="url(#clip0_7305_2247)">
<path d="M4.70473 0.888184C2.12218 0.888184 0 3.00746 0 5.59291V12.1835C0 14.766 2.11927 16.8882 4.70473 16.8882H11.2953C13.8778 16.8882 16 14.7689 16 12.1835V5.59364C16 3.01037 13.8807 0.888184 11.2953 0.888184H4.70473ZM4.70473 2.34273H11.2953C11.7223 2.34215 12.1452 2.42583 12.5397 2.58896C12.9343 2.7521 13.2929 2.99148 13.5948 3.2934C13.8967 3.59533 14.1361 3.95385 14.2992 4.34844C14.4624 4.74303 14.546 5.16593 14.5455 5.59291V12.1835C14.546 12.6104 14.4624 13.0333 14.2992 13.4279C14.1361 13.8225 13.8967 14.181 13.5948 14.483C13.2929 14.7849 12.9343 15.0243 12.5397 15.1874C12.1452 15.3505 11.7223 15.4342 11.2953 15.4336H4.70545C4.27841 15.4343 3.85543 15.3507 3.46076 15.1876C3.06609 15.0245 2.70748 14.7852 2.40548 14.4832C2.10348 14.1813 1.86403 13.8227 1.70085 13.4281C1.53767 13.0335 1.45397 12.6105 1.45455 12.1835V5.59364C1.45388 5.1666 1.53748 4.74362 1.70057 4.34894C1.86366 3.95427 2.10303 3.59566 2.40496 3.29366C2.70689 2.99166 3.06545 2.75221 3.46009 2.58903C3.85473 2.42585 4.27768 2.34215 4.70473 2.34273ZM12.2953 3.934C12.2086 3.93342 12.1226 3.95007 12.0424 3.98298C11.9622 4.01588 11.8894 4.0644 11.8281 4.1257C11.7668 4.187 11.7182 4.25987 11.6853 4.34007C11.6524 4.42028 11.6358 4.50622 11.6364 4.59291C11.6364 4.95946 11.9287 5.25182 12.2953 5.25182C12.382 5.2525 12.468 5.23592 12.5483 5.20306C12.6286 5.17019 12.7016 5.12169 12.763 5.06038C12.8243 4.99907 12.8729 4.92617 12.9059 4.84592C12.9388 4.76567 12.9555 4.67966 12.9549 4.59291C12.9555 4.50616 12.9388 4.42016 12.9059 4.3399C12.8729 4.25965 12.8243 4.18675 12.763 4.12544C12.7016 4.06413 12.6286 4.01563 12.5483 3.98277C12.468 3.9499 12.382 3.93332 12.2953 3.934ZM8 4.52455C5.6 4.52455 3.63636 6.48818 3.63636 8.88818C3.63636 11.2882 5.6 13.2518 8 13.2518C10.4 13.2518 12.3636 11.2882 12.3636 8.88818C12.3636 6.48818 10.4 4.52455 8 4.52455ZM8 5.97909C9.61673 5.97909 10.9091 7.27146 10.9091 8.88818C10.9091 10.5049 9.61673 11.7973 8 11.7973C6.38327 11.7973 5.09091 10.5049 5.09091 8.88818C5.09091 7.27146 6.38327 5.97909 8 5.97909Z" fill="white"/>
</g>
<defs>
<clipPath id="clip0_7305_2247">
<rect width="16" height="16" fill="white" transform="translate(0 0.888184)"/>
</clipPath>
</defs>
</svg>
