<svg width="16" height="17" viewBox="0 0 16 17" fill="none" xmlns="http://www.w3.org/2000/svg">
<path d="M13.7598 4.33951C13.3274 4.55971 12.8567 4.71818 12.372 4.7799C12.8753 4.42698 13.2522 3.86943 13.4319 3.21186C12.9597 3.54346 12.4423 3.77599 11.9028 3.89913C11.6773 3.61459 11.4046 3.38791 11.1016 3.23322C10.7986 3.07853 10.4719 2.99915 10.1419 3.00001C8.80631 3.00001 7.73223 4.27779 7.73223 5.84583C7.73223 6.06602 7.75484 6.28622 7.79158 6.49807C5.79181 6.37463 4.00826 5.24697 2.82252 3.52046C2.60647 3.95604 2.49325 4.45199 2.49464 4.95672C2.49464 5.94425 2.92004 6.81501 3.56873 7.32713C3.18645 7.30936 2.81311 7.18533 2.4791 6.96515V7.00018C2.4791 8.38305 3.30728 9.52906 4.41104 9.79262C4.2038 9.85616 3.9906 9.88867 3.77648 9.88937C3.61961 9.88937 3.47121 9.87102 3.32141 9.846C3.62667 10.9737 4.51562 11.7927 5.57416 11.8194C4.74599 12.5851 3.70864 13.0355 2.58227 13.0355C2.38017 13.0355 2.19362 13.0271 2 13.0004C3.06843 13.8095 4.33614 14.2765 5.70136 14.2765C10.1334 14.2765 12.5585 9.94275 12.5585 6.18113C12.5585 6.05768 12.5585 5.93424 12.5515 5.8108C13.0207 5.40545 13.4319 4.90334 13.7598 4.33951Z" fill="white"/>
</svg>
